<?xml version="1.0" encoding="UTF-8" standalone="no"?>
<svg width="121px" height="163px" viewBox="0 0 121 163" version="1.1" xmlns="http://www.w3.org/2000/svg" xmlns:xlink="http://www.w3.org/1999/xlink">
    <!-- Generator: Sketch 39.1 (31720) - http://www.bohemiancoding.com/sketch -->
    <title>Group</title>
    <desc>Created with Sketch.</desc>
    <defs></defs>
    <g id="Page-1" stroke="none" stroke-width="1" fill="none" fill-rule="evenodd">
        <g id="Logo" transform="translate(-125.000000, -154.000000)">
            <g id="Group" transform="translate(125.000000, 154.500000)">
                <path d="M68,79.9838333 C59.3125,79.9838333 50.4021739,78.218 42.0217391,76.56355 C39.6086957,76.0854167 37.25,75.6208667 34.9646739,75.21065 C20.4375,72.6216667 4.79619565,75.9821833 0.135869565,77.1313333 C7.13858696,145.653817 28.9130435,156.927983 28.9130435,156.927983 L61.9184783,156.927983 C72.4157609,147.9331 79.2038043,130.823533 83.5842391,114.423017 C87.2717391,100.641367 89.25,86.2077167 90.3233696,74.34675 C83.4320652,78.5494333 75.8125,79.9838333 68,79.9838333" id="Fill-27-Copy" fill="#38BCB1"></path>
                <path d="M37.8505435,47.7668833 C36.3016304,47.7668833 35.0163043,46.5443833 34.9565217,44.9823 C34.423913,31.4859 37.5597826,28.4052 43.6168478,23.7080833 C45.0244565,22.6187 46.6195652,21.3799 48.3423913,19.7770667 C55.3668478,13.2462 53.7744565,3.96606667 53.701087,3.57486667 C53.4157609,2.00463333 54.4538043,0.49145 56.0217391,0.200766667 C57.5978261,-0.0926333333 59.1032609,0.934266667 59.3994565,2.50178333 C59.5,3.01795 61.7038043,15.2701167 52.2907609,24.0232167 C50.3777174,25.8026333 48.673913,27.1229333 47.1711957,28.2883833 C42.3179348,32.0509667 40.3097826,33.6103333 40.75,44.7568167 C40.8125,46.3542167 39.5652174,47.7016833 37.9673913,47.7668833 L37.8505435,47.7668833" id="Fill-28-Copy" fill="#404041"></path>
                <path d="M58.048913,49.17955 C56.4918478,49.17955 55.2065217,47.9489 55.1521739,46.3813833 C54.798913,36.09065 57.0543478,33.58045 61.0706522,30.0324833 C62.0217391,29.1930333 63.0054348,28.3237 64.1086957,27.15825 C68.4782609,22.5236167 67.4456522,15.6205667 67.4347826,15.55265 C67.1847826,13.9769833 68.2554348,12.48825 69.8315217,12.2328833 C71.4076087,11.9720833 72.8913043,13.0343 73.1548913,14.60725 C73.2201087,15.0038833 74.7038043,24.3736667 68.3233696,31.13545 C67.0434783,32.4937833 65.9103261,33.4962333 64.9103261,34.37915 C61.8233696,37.1039667 60.6684783,38.1227167 60.9483696,46.1830667 C61.0027174,47.7831833 59.75,49.1252167 58.1494565,49.17955 L58.048913,49.17955" id="Fill-29-Copy" fill="#404041"></path>
                <path d="M120.307065,101.578617 C120.307065,93.6052 118.002717,88.2452167 113.461957,85.64265 C109.940217,83.6241667 105.383152,83.4557333 99.9157609,85.1400667 C98.8994565,85.4524833 97.951087,85.8029333 97.1005435,86.14795 C97.1521739,85.6290667 97.2119565,85.1183333 97.2608696,84.5940167 C98.5353261,71.0432833 98.4402174,61.40455 98.4375,61.0024833 L98.4021739,58.1364 L2.0951087,58.1364 L2.19836957,61.1356 C5.1875,148.6014 32.5271739,160.978533 33.6875,161.4621 L34.2228261,161.684867 L67.826087,161.684867 L68.6222826,161.041017 C76.1847826,154.9258 82.4266304,145.31695 87.2527174,132.420933 C98.8668478,130.9648 120.307065,122.730583 120.307065,101.578617 L120.307065,101.578617 Z M92.6222826,63.9337667 C92.576087,66.9248167 92.4211957,72.0729 91.9538043,78.4788 C79.6983696,86.6885667 64.0842391,83.7491333 48.9538043,80.8912 C46.4347826,80.4157833 44.0570652,79.9675333 41.6766304,79.5654667 C29.1331522,77.4546167 16.1576087,79.2557667 9.17119565,80.6113833 C8.71467391,75.4089667 8.35326087,69.8588167 8.10597826,63.9337667 L92.6222826,63.9337667 L92.6222826,63.9337667 Z M65.75,155.890217 L35.5298913,155.890217 C32.6059783,154.10265 15.6141304,141.448417 9.73369565,86.4196167 C16.1413043,85.1509333 28.8097826,83.2764333 40.7146739,85.28405 C43.0380435,85.6725333 45.388587,86.1180667 47.8777174,86.58805 C55.6657609,88.0577667 63.9456522,89.6225667 72.0597826,89.6225667 C78.7201087,89.61985 85.2663043,88.5657833 91.3342391,85.5394167 C90.0326087,98.5739833 87.9130435,110.3779 85.0108696,120.625167 C80.3559783,137.066433 73.8804348,148.921967 65.75,155.890217 L65.75,155.890217 Z M100.815217,122.084017 C96.5461957,124.295383 92.2255435,125.507017 89.4130435,126.129133 C89.8152174,124.84415 90.2119565,123.542867 90.5896739,122.20355 C93.0706522,113.447733 94.9891304,103.607967 96.3369565,92.89615 C99.0108696,91.4101333 106.415761,88.2859667 110.578804,90.6739167 C113.1875,92.1653667 114.508152,95.8355833 114.508152,101.578617 C114.508152,110.4757 109.902174,117.376033 100.815217,122.084017 L100.815217,122.084017 Z" id="Fill-30-Copy" fill="#404041"></path>
            </g>
        </g>
    </g>
</svg>