<?xml version="1.0" encoding="UTF-8" standalone="no"?>
<svg width="194px" height="17px" viewBox="0 0 194 17" version="1.1" xmlns="http://www.w3.org/2000/svg" xmlns:xlink="http://www.w3.org/1999/xlink" xmlns:sketch="http://www.bohemiancoding.com/sketch/ns">
    <!-- Generator: Sketch 3.5.2 (25235) - http://www.bohemiancoding.com/sketch -->
    <title>coffee &amp; design</title>
    <desc>Created with Sketch.</desc>
    <defs></defs>
    <g id="Page-1" stroke="none" stroke-width="1" fill="none" fill-rule="evenodd" sketch:type="MSPage">
        <g id="Desktop-Copy-11" sketch:type="MSArtboardGroup" transform="translate(-64.000000, -40.000000)" fill="#000000">
            <g id="coffee-&amp;-design" sketch:type="MSLayerGroup" transform="translate(64.000000, 40.000000)">
                <path d="M13.1569882,13.7244357 C12.5439941,14.3751905 11.7961183,14.8863748 10.9145089,15.2579885 C10.0317515,15.6296022 9.04338462,15.8156963 7.94711243,15.8156963 C6.87035503,15.8156963 5.8814142,15.624433 4.98086391,15.243055 C4.07973964,14.8616771 3.29972189,14.3303901 2.64023669,13.6509171 C1.98132544,12.9714441 1.47049704,12.1621648 1.10832544,11.221356 C0.746153846,10.2811216 0.56535503,9.26162487 0.56535503,8.16344026 C0.56535503,7.0646813 0.746153846,6.0451846 1.10832544,5.10437583 C1.47049704,4.16529014 1.98132544,3.35486207 2.64023669,2.67538906 C3.29972189,1.99534169 4.07973964,1.46462905 4.98086391,1.08325113 C5.8814142,0.701873215 6.87035503,0.510609892 7.94711243,0.510609892 C8.87578698,0.510609892 9.77231953,0.669134448 10.6361361,0.985034831 C11.4993787,1.30093521 12.2466805,1.7650216 12.8780414,2.3784427 L12.432645,2.79657994 C11.8936923,2.23887217 11.2112485,1.8213093 10.3853136,1.54216823 C9.55880473,1.26360153 8.74607101,1.124031 7.94711243,1.124031 C6.94439645,1.124031 6.02547929,1.31012504 5.18978698,1.6811644 C4.35409467,2.05392685 3.63893491,2.55534692 3.04488166,3.18714768 C2.44968047,3.81894845 1.99050888,4.56677081 1.66564497,5.43118913 C1.3402071,6.29560745 1.17834911,7.21056984 1.17834911,8.17722501 C1.17834911,9.14388018 1.3402071,10.0582682 1.66564497,10.9226865 C1.99050888,11.7871048 2.44566272,12.5400965 3.03053254,13.1810871 C3.61540237,13.8220777 4.32597041,14.328667 5.16166272,14.7002807 C5.99735503,15.0724688 6.92602959,15.2579885 7.94711243,15.2579885 C8.91309467,15.2579885 9.80905325,15.0816587 10.6361361,14.7278502 C11.462071,14.3751905 12.1634556,13.8915758 12.739142,13.278729 L13.1569882,13.7244357" id="Fill-1" sketch:type="MSShapeGroup"></path>
                <path d="M7.94711243,16.1028784 C6.83763905,16.1028784 5.80163314,15.9024253 4.86894083,15.507837 C3.93739645,15.1132487 3.11834911,14.5555409 2.4347574,13.8513703 C1.75173964,13.1466252 1.21508284,12.296566 0.840857988,11.3247416 C0.467207101,10.3557889 0.278372781,9.29206618 0.278372781,8.16344026 C0.278372781,7.03481435 0.467207101,5.97051724 0.840284024,5.00156461 C1.2156568,4.0274427 1.75231361,3.17795785 2.4347574,2.47493591 C3.11720118,1.7713396 3.93682249,1.21363184 4.86894083,0.818469175 C5.80163314,0.423880878 6.83763905,0.223427726 7.94711243,0.223427726 C8.90448521,0.223427726 9.8423432,0.388844653 10.734284,0.715083595 C11.6331124,1.04419436 12.4217396,1.53527586 13.0777811,2.17282027 L13.2935917,2.38246325 L12.4228876,3.19920933 L12.2265917,2.99645873 C11.7226509,2.47436155 11.0717751,2.07747579 10.2934793,1.81441693 C8.50500592,1.21133438 6.7366213,1.30897631 5.30630178,1.9436489 C4.50849112,2.29975479 3.81801183,2.78336956 3.25380473,3.38358029 C2.68787574,3.98493974 2.24362722,4.70806444 1.93426036,5.53227726 C1.6231716,6.35936189 1.46533136,7.24962661 1.46533136,8.17722501 C1.46533136,9.10424904 1.6231716,9.99451376 1.93426036,10.8221728 C2.24420118,11.6469599 2.68443195,12.3758283 3.24232544,12.9875263 C3.79792308,13.5963525 4.48266272,14.0839878 5.27817751,14.4377962 C6.07254438,14.7916047 6.97079882,14.9708063 7.94711243,14.9708063 C8.86947337,14.9708063 9.73615976,14.8002201 10.5230651,14.4636426 C11.3088225,14.1282139 11.9838047,13.6635531 12.529645,13.081722 L12.739142,12.8588687 L13.5507278,13.7250101 L13.3653373,13.9214427 C12.7288107,14.5980439 11.9419053,15.1362233 11.025858,15.5227705 C10.1109586,15.9075946 9.07552663,16.1028784 7.94711243,16.1028784 L7.94711243,16.1028784 Z M12.7334024,13.6928457 C12.1743609,14.2315994 11.5079882,14.6681163 10.7486331,14.9920578 C10.3657988,15.1557517 9.96631953,15.2832605 9.55249112,15.3745845 C9.99272189,15.285558 10.410568,15.1580491 10.8031598,14.9932065 C11.5556272,14.6755831 12.2122426,14.2476816 12.7586568,13.7192665 L12.7334024,13.6928457 L12.7334024,13.6928457 Z M7.94711243,0.797792059 C6.91512426,0.797792059 5.95430769,0.983311738 5.09221302,1.34803309 C4.23126627,1.71218008 3.47535503,2.22681052 2.84628994,2.87584222 C2.21837278,3.52257645 1.72361538,4.3077325 1.3757929,5.20776141 C1.02854438,6.11066214 0.852337278,7.10546116 0.852337278,8.16344026 C0.852337278,9.220845 1.02854438,10.215644 1.3757929,11.1179704 C1.72246746,12.0179993 2.21722485,12.802581 2.84628994,13.4510383 C3.37778107,13.9984075 3.99766272,14.4492835 4.69502959,14.7956252 C3.97413018,14.4274577 3.34391716,13.9507353 2.81873964,13.3746479 C2.21091124,12.7089596 1.73279882,11.9180599 1.39702959,11.0237746 C1.06126036,10.1317868 0.891366864,9.17374713 0.891366864,8.17722501 C0.891366864,7.18012853 1.06126036,6.22208882 1.39702959,5.33010101 C1.73337278,4.43409265 2.21779882,3.64663915 2.83538462,2.99014072 C3.45239645,2.33421665 4.20486391,1.80580146 5.07269822,1.4186799 C6.63502959,0.724847788 8.55264497,0.621462208 10.476574,1.2704939 C11.2433905,1.52895785 11.9011538,1.90803831 12.4360888,2.39911982 L12.4567515,2.3801658 C11.9051716,1.89712539 11.2606095,1.51919366 10.5374142,1.2544117 C9.70860947,0.9517217 8.83733136,0.797792059 7.94711243,0.797792059 L7.94711243,0.797792059 Z" id="Fill-2" sketch:type="MSShapeGroup"></path>
                <path d="M30.6789763,8.14908116 C30.6789763,9.26449669 30.4981775,10.2914601 30.1360059,11.2293971 C29.7738343,12.1679084 29.2584142,12.9766134 28.5897456,13.6549377 C27.9216509,14.3338363 27.127284,14.8634002 26.2077929,15.2442038 C25.2888757,15.624433 24.2718107,15.8156963 23.1577456,15.8156963 C22.0614734,15.8156963 21.0541657,15.624433 20.1352485,15.2442038 C19.2157574,14.8634002 18.4259822,14.3338363 17.767071,13.6549377 C17.1075858,12.9766134 16.5927396,12.1679084 16.2213846,11.2293971 C15.8494556,10.2914601 15.6640651,9.26449669 15.6640651,8.14908116 C15.6640651,7.03423999 15.8494556,6.00785092 16.2213846,5.06876524 C16.5927396,4.13025392 17.1075858,3.32671822 17.767071,2.65758377 C18.4259822,1.98844932 19.2157574,1.46807524 20.1352485,1.09646151 C21.0541657,0.724273424 22.0614734,0.538753744 23.1577456,0.538753744 C24.2718107,0.538753744 25.2888757,0.724273424 26.2077929,1.09646151 C27.127284,1.46807524 27.9216509,1.98844932 28.5897456,2.65758377 C29.2584142,3.32671822 29.7738343,4.13025392 30.1360059,5.06876524 C30.4981775,6.00785092 30.6789763,7.03423999 30.6789763,8.14908116 L30.6789763,8.14908116 Z M30.0665562,8.14908116 C30.0665562,7.18300035 29.908716,6.2674636 29.5930355,5.40304528 C29.2767811,4.53920132 28.8170355,3.7908046 28.2137988,3.1595782 C27.6099882,2.52720307 26.8810533,2.025783 26.0269941,1.65416928 C25.1723609,1.28198119 24.2161361,1.09646151 23.1577456,1.09646151 C22.099355,1.09646151 21.1425562,1.28198119 20.288497,1.65416928 C19.4338639,2.025783 18.7095207,2.52720307 18.1154675,3.1595782 C17.5208402,3.7908046 17.0662604,4.53920132 16.7505799,5.40304528 C16.4343254,6.2674636 16.2770592,7.18300035 16.2770592,8.14908116 C16.2770592,9.13469035 16.4343254,10.054822 16.7505799,10.9089018 C17.0662604,11.7641303 17.5208402,12.5171219 18.1154675,13.1673023 C18.7095207,13.8174828 19.4338639,14.328667 20.288497,14.7002807 C21.1425562,15.0724688 22.099355,15.2579885 23.1577456,15.2579885 C24.2161361,15.2579885 25.1723609,15.0724688 26.0269941,14.7002807 C26.8810533,14.328667 27.6099882,13.8174828 28.2137988,13.1673023 C28.8170355,12.5171219 29.2767811,11.7641303 29.5930355,10.9089018 C29.908716,10.054822 30.0665562,9.13469035 30.0665562,8.14908116 L30.0665562,8.14908116 Z" id="Fill-3" sketch:type="MSShapeGroup"></path>
                <path d="M23.1577456,16.1028784 C22.0310533,16.1028784 20.9772544,15.9029997 20.0256213,15.5095601 C19.0728402,15.1149718 18.2440355,14.5578384 17.5615917,13.8553908 C16.8791479,13.1529432 16.3384734,12.3057558 15.9544911,11.3356545 C15.5710828,10.3678506 15.3770828,9.29608673 15.3770828,8.14908116 C15.3770828,7.00264995 15.5710828,5.9308861 15.9544911,4.96250784 C16.3384734,3.99298084 16.8797219,3.14923964 17.5627396,2.45540752 C18.2451834,1.76272414 19.0745621,1.21592929 20.0273432,0.829956461 C20.9766805,0.446281087 22.0293314,0.251571578 23.1577456,0.251571578 C24.3045266,0.251571578 25.3669349,0.446281087 26.3156982,0.829956461 C27.2673314,1.21535493 28.1007278,1.76157541 28.792929,2.45425879 C29.4868521,3.14866527 30.0292485,3.99355521 30.4034734,4.96537966 C30.7771243,5.93318356 30.9659586,7.00437304 30.9659586,8.14908116 C30.9659586,9.29436364 30.7771243,10.3661275 30.4034734,11.3327827 C30.0292485,12.3051815 29.487426,13.1535176 28.7940769,13.8571139 C28.1024497,14.5589871 27.2690533,15.1155462 26.3179941,15.5095601 C25.365787,15.9029997 24.3028047,16.1028784 23.1577456,16.1028784 L23.1577456,16.1028784 Z M23.1577456,1.38364368 C22.1429763,1.38364368 21.2160237,1.56284535 20.4032899,1.91722814 C19.5876864,2.2721853 18.8880237,2.75637443 18.3243905,3.3560108 C17.7596095,3.95564716 17.3211006,4.67762313 17.0203432,5.50183595 C16.7172899,6.32892059 16.5640414,7.21975967 16.5640414,8.14908116 C16.5640414,9.09735667 16.7172899,9.99164194 17.0197692,10.8089624 C17.3211006,11.6257085 17.7607574,12.3534281 18.3272604,12.9731672 C18.8908935,13.5906088 19.5894083,14.0828391 20.402716,14.4366475 C21.2160237,14.7916047 22.1429763,14.9708063 23.1577456,14.9708063 C24.1719408,14.9708063 25.0988935,14.7916047 25.9127751,14.4366475 C26.7266568,14.0828391 27.4297633,13.5900345 28.0037278,12.9720185 C28.5782663,12.3528537 29.0225148,11.6251341 29.3238462,10.8089624 C29.6263254,9.99106757 29.779574,9.09620794 29.779574,8.14908116 C29.779574,7.22090839 29.6263254,6.33006931 29.3232722,5.50183595 C29.0225148,4.67877186 28.5788402,3.95737025 28.0065976,3.35773389 C27.4326331,2.7569488 26.7283787,2.27275967 25.9127751,1.91722814 C25.0988935,1.56284535 24.1719408,1.38364368 23.1577456,1.38364368 L23.1577456,1.38364368 Z M25.5632308,1.17170324 C25.7612485,1.23603204 25.9541006,1.30897631 26.141213,1.39053605 C27.0274142,1.77593452 27.7948047,2.3043497 28.421,2.96084814 C29.0489172,3.6184953 29.5339172,4.40652316 29.8627988,5.30425462 C30.1882367,6.19681679 30.3535385,7.15370777 30.3535385,8.14908116 C30.3535385,9.1645573 30.1882367,10.1266176 29.8622249,11.0088412 C29.5339172,11.8956597 29.0506391,12.6877081 28.4238698,13.3620118 C27.8499053,13.981751 27.1588521,14.4843197 26.3656331,14.8616771 C27.1347456,14.5072943 27.8131716,14.0345925 28.3854142,13.4539101 C29.0230888,12.8071759 29.5218639,12.0237429 29.8685385,11.1265859 C30.215787,10.2248339 30.392568,9.22371682 30.392568,8.14908116 C30.392568,7.07501985 30.215787,6.07332846 29.8685385,5.17215082 C29.5224379,4.27556809 29.0242367,3.49845315 28.3871361,2.86033438 C27.7500355,2.22278997 26.9803491,1.71849808 26.1004615,1.36296656 C25.9259763,1.29231975 25.7468994,1.22799094 25.5632308,1.17170324 L25.5632308,1.17170324 Z M20.159929,1.39627969 C19.3150533,1.75066249 18.5792308,2.24174399 17.9714024,2.85861129 C17.3423373,3.49787879 16.8435621,4.27671682 16.4877041,5.17444828 C16.1318462,6.07505155 15.9510473,7.07559422 15.9510473,8.14908116 C15.9510473,9.22314246 16.1318462,10.2236851 16.4877041,11.123714 C16.8435621,12.0231686 17.3434852,12.8077503 17.9731243,13.4544845 C18.2451834,13.7347743 18.542497,13.9897921 18.8639172,14.2189634 C18.5137988,13.9639457 18.1929527,13.6773379 17.9036746,13.3602887 C17.2866627,12.6865594 16.8079763,11.8950853 16.4813905,11.0082668 C16.1553787,10.1277663 15.9900769,9.16513166 15.9900769,8.14908116 C15.9900769,7.15255904 16.1553787,6.19566806 16.4808166,5.30425462 C16.8085503,4.40767189 17.2883846,3.61964403 17.9065444,2.96257123 C18.5206864,2.30894462 19.2788935,1.78225253 20.159929,1.39627969 L20.159929,1.39627969 Z" id="Fill-4" sketch:type="MSShapeGroup"></path>
                <path d="M35.8050533,1.48645489 L35.8050533,7.73094392 L42.9365621,7.73094392 L42.9365621,8.28807732 L35.8050533,8.28807732 L35.8050533,15.4251285 L35.1920592,15.4251285 L35.1920592,0.928747126 L43.4657574,0.928747126 L43.4657574,1.48645489 L35.8050533,1.48645489" id="Fill-5" sketch:type="MSShapeGroup"></path>
                <path d="M36.0920355,15.7123107 L34.9050769,15.7123107 L34.9050769,0.64156496 L43.7527396,0.64156496 L43.7527396,1.77363706 L36.0920355,1.77363706 L36.0920355,7.44376176 L43.2235444,7.44376176 L43.2235444,8.57525949 L36.0920355,8.57525949 L36.0920355,15.7123107 L36.0920355,15.7123107 Z M35.4790414,15.1379464 L35.518071,15.1379464 L35.518071,1.21592929 L35.4790414,1.21592929 L35.4790414,15.1379464 Z" id="Fill-6" sketch:type="MSShapeGroup"></path>
                <path d="M48.3128876,1.48645489 L48.3128876,7.73094392 L55.4443964,7.73094392 L55.4443964,8.28807732 L48.3128876,8.28807732 L48.3128876,15.4251285 L47.6998935,15.4251285 L47.6998935,0.928747126 L55.9735917,0.928747126 L55.9735917,1.48645489 L48.3128876,1.48645489" id="Fill-7" sketch:type="MSShapeGroup"></path>
                <path d="M48.5998698,15.7123107 L47.4129112,15.7123107 L47.4129112,0.64156496 L56.260574,0.64156496 L56.260574,1.77363706 L48.5998698,1.77363706 L48.5998698,7.44376176 L55.7313787,7.44376176 L55.7313787,8.57525949 L48.5998698,8.57525949 L48.5998698,15.7123107 L48.5998698,15.7123107 Z M47.9868757,15.1379464 L48.0259053,15.1379464 L48.0259053,1.21592929 L47.9868757,1.21592929 L47.9868757,15.1379464 Z" id="Fill-8" sketch:type="MSShapeGroup"></path>
                <path d="M60.2077278,15.4251285 L60.2077278,0.928747126 L68.676574,0.928747126 L68.676574,1.48645489 L60.8207219,1.48645489 L60.8207219,7.61951724 L68.2030533,7.61951724 L68.2030533,8.17722501 L60.8207219,8.17722501 L60.8207219,14.8674208 L68.983071,14.8674208 L68.983071,15.4251285 L60.2077278,15.4251285" id="Fill-9" sketch:type="MSShapeGroup"></path>
                <path d="M69.2700533,15.7123107 L59.9207456,15.7123107 L59.9207456,0.64156496 L68.9635562,0.64156496 L68.9635562,1.77363706 L61.1077041,1.77363706 L61.1077041,7.33233507 L68.4900355,7.33233507 L68.4900355,8.46440718 L61.1077041,8.46440718 L61.1077041,14.5802386 L69.2700533,14.5802386 L69.2700533,15.7123107 L69.2700533,15.7123107 Z M60.4947101,15.1379464 L60.5337396,15.1379464 L60.5337396,1.21592929 L60.4947101,1.21592929 L60.4947101,15.1379464 Z" id="Fill-10" sketch:type="MSShapeGroup"></path>
                <path d="M73.4955799,15.4251285 L73.4955799,0.928747126 L81.964426,0.928747126 L81.964426,1.48645489 L74.108574,1.48645489 L74.108574,7.61951724 L81.4909053,7.61951724 L81.4909053,8.17722501 L74.108574,8.17722501 L74.108574,14.8674208 L82.2709231,14.8674208 L82.2709231,15.4251285 L73.4955799,15.4251285" id="Fill-11" sketch:type="MSShapeGroup"></path>
                <path d="M82.5579053,15.7123107 L73.2085976,15.7123107 L73.2085976,0.64156496 L82.2514083,0.64156496 L82.2514083,1.77363706 L74.3961302,1.77363706 L74.3961302,7.33233507 L81.7778876,7.33233507 L81.7778876,8.46440718 L74.3961302,8.46440718 L74.3961302,14.5802386 L82.5579053,14.5802386 L82.5579053,15.7123107 L82.5579053,15.7123107 Z M73.7825621,15.1379464 L73.8215917,15.1379464 L73.8215917,1.21592929 L73.7825621,1.21592929 L73.7825621,15.1379464 Z" id="Fill-12" sketch:type="MSShapeGroup"></path>
                <path d="M104.501142,15.4251285 L102.272438,13.0277318 C101.102698,14.8863748 99.570213,15.8156963 97.6755562,15.8156963 C97.0998698,15.8156963 96.5614911,15.7272442 96.0604201,15.55034 C95.5587751,15.3740101 95.1219882,15.1138231 94.7506331,14.7703532 C94.3792781,14.426309 94.0865562,14.0035768 93.8730414,13.5015824 C93.6595266,12.9995879 93.5533432,12.4326904 93.5533432,11.8014639 C93.5533432,10.7417618 93.8730414,9.86355869 94.5135858,9.16685475 C95.1547041,8.46957645 95.9766213,7.87970428 96.9793373,7.39666388 C96.6079822,6.98829084 96.3060769,6.62069767 96.0741953,6.29560745 C95.8417396,5.97051724 95.6557751,5.66380669 95.5168757,5.37547579 C95.3774024,5.0871449 95.2798284,4.8085782 95.2247278,4.53920132 C95.1684793,4.26982445 95.140929,3.98608847 95.140929,3.68914211 C95.140929,2.79657994 95.4422604,2.04875758 96.046071,1.4445263 C96.6493077,0.841443748 97.4253077,0.538753744 98.3723491,0.538753744 C99.3193905,0.538753744 100.075876,0.81789481 100.642953,1.37502821 C101.208882,1.93273598 101.491846,2.60187043 101.491846,3.38185719 C101.491846,4.27441937 101.200272,5.03143156 100.614828,5.65404249 C100.029959,6.27665343 99.1242426,6.91362348 97.8988284,7.5638039 L102.161089,12.0800307 L104.389219,7.89865831 L105.057888,7.89865831 L102.578935,12.470024 L105.30871,15.4251285 L104.501142,15.4251285 L104.501142,15.4251285 Z M97.3415089,7.78665726 C96.9139053,7.99170533 96.5058166,8.22374852 96.1155207,8.4833612 C95.7257988,8.74412261 95.3865858,9.03704842 95.0990296,9.36213863 C94.8108994,9.68722884 94.5836095,10.0496527 94.4165858,10.4488359 C94.2489882,10.8485935 94.1657633,11.2994695 94.1657633,11.8014639 C94.1657633,12.3585974 94.2587456,12.851402 94.4441361,13.278729 C94.6295266,13.7060561 94.8855148,14.0690543 95.2103787,14.3654263 C95.5352426,14.6635214 95.916355,14.8909697 96.352568,15.0489199 C96.7887811,15.2068701 97.258284,15.285558 97.759929,15.285558 C98.632355,15.285558 99.4077811,15.0535148 100.085633,14.5888541 C100.763485,14.1247677 101.352947,13.4550589 101.854592,12.5814507 L97.3415089,7.78665726 L97.3415089,7.78665726 Z M100.879426,3.46571439 C100.879426,2.7408666 100.637787,2.16018426 100.155083,1.72366736 C99.6723787,1.28715047 99.0588107,1.06831766 98.3166746,1.06831766 C97.6106982,1.06831766 97.0074615,1.31012504 96.5058166,1.79316545 C96.0041716,2.27678022 95.7533491,2.89939115 95.7533491,3.66099826 C95.7533491,4.27441937 95.8968402,4.84533751 96.1855444,5.37547579 C96.4731006,5.90503971 96.9236627,6.50467607 97.5366568,7.17323615 C98.6880296,6.59772309 99.5323314,6.00785092 100.071858,5.40304528 C100.609663,4.79938837 100.879426,4.15322849 100.879426,3.46571439 L100.879426,3.46571439 Z" id="Fill-13" sketch:type="MSShapeGroup"></path>
                <path d="M97.6755562,16.1028784 C97.0700237,16.1028784 96.4949112,16.0081083 95.965142,15.8214399 C95.4284852,15.6324741 94.9543905,15.3498868 94.5560592,14.9811449 C94.1560059,14.6106799 93.8380296,14.1506141 93.6090178,13.6141578 C93.3817278,13.0794246 93.2663609,12.470024 93.2663609,11.8014639 C93.2663609,10.6722637 93.6147574,9.72054197 94.3023669,8.97214525 C94.8906805,8.33287774 95.6345385,7.77402125 96.5167219,7.30821177 C96.2515503,7.00379868 96.0242604,6.7200627 95.8405917,6.46217311 C95.6006746,6.1273187 95.4049527,5.80337722 95.2585917,5.50011285 C95.1093609,5.19282793 95.0037515,4.88841484 94.9434852,4.59721212 C94.8843669,4.31232741 94.8539467,4.00619122 94.8539467,3.68914211 C94.8539467,2.72191257 95.1868462,1.89827412 95.8434615,1.24177569 C96.499503,0.584702891 97.3506923,0.251571578 98.3723491,0.251571578 C99.392284,0.251571578 100.223959,0.560579589 100.844414,1.17055451 C101.46487,1.7811038 101.778828,2.52547997 101.778828,3.38185719 C101.778828,4.34621491 101.457982,5.17674573 100.823751,5.85104946 C100.273893,6.43632672 99.4473846,7.03653744 98.3637396,7.63847126 L102.095083,11.5923953 L104.217604,7.61147614 L105.540018,7.61147614 L102.929053,12.425798 L105.964751,15.7123107 L104.376018,15.7123107 L102.310893,13.4912438 C101.115325,15.2246754 99.5570118,16.1028784 97.6755562,16.1028784 L97.6755562,16.1028784 Z M94.7305444,9.35524626 C94.7288225,9.35696935 94.7265266,9.35926681 94.7248047,9.36156426 C94.1290296,10.0082985 93.8397515,10.8066649 93.8397515,11.8014639 C93.8397515,12.3919105 93.9396213,12.9260693 94.1370651,13.3884326 C94.3339349,13.8507959 94.6054201,14.2442355 94.9457811,14.5589871 C95.2740888,14.8639746 95.6638107,15.0994639 96.1057633,15.2614347 C95.6959527,15.0942947 95.3297633,14.8651233 95.0163787,14.5773668 C94.6633905,14.2551484 94.3821479,13.8565395 94.1806864,13.3930275 C93.9803728,12.9306642 93.8787811,12.3953567 93.8787811,11.8014639 C93.8787811,11.2632846 93.9706154,10.7710543 94.1519882,10.3379836 C94.300071,9.9841752 94.494071,9.65449007 94.7305444,9.35524626 L94.7305444,9.35524626 Z M104.625692,15.1379464 L104.652669,15.1379464 L102.245462,12.531481 L102.229964,12.5607736 L104.625692,15.1379464 L104.625692,15.1379464 Z M97.2783728,8.13816823 C96.9322722,8.31277499 96.595355,8.50920759 96.2750828,8.72229676 C95.9065976,8.96869906 95.5834556,9.24784013 95.3136923,9.55282759 C95.0485207,9.85149704 94.8361538,10.1909464 94.6811834,10.5596883 C94.5296568,10.9221122 94.4527456,11.339675 94.4527456,11.8014639 C94.4527456,12.3160944 94.5382663,12.7750115 94.7075858,13.1644305 C94.8763314,13.5527008 95.1105089,13.8852577 95.4038047,14.1534859 C95.6993964,14.4245859 96.0506627,14.6342288 96.450142,14.7783943 C96.8519172,14.9242828 97.2927219,14.9983758 97.759929,14.9983758 C98.5692189,14.9983758 99.2970059,14.7806917 99.9237751,14.3516416 C100.514385,13.9467147 101.04358,13.3648837 101.497586,12.6210819 L97.2783728,8.13816823 L97.2783728,8.13816823 Z M102.206432,12.5458401 L102.103692,12.7244674 C101.964219,12.9674235 101.817284,13.1960206 101.663462,13.4096841 C101.788586,13.2413953 101.91084,13.0633424 102.029651,12.8749509 L102.224225,12.5659429 L102.206432,12.5458401 L102.206432,12.5458401 Z M104.561408,8.18584047 L103.75097,9.70618286 L104.576331,8.18584047 L104.561408,8.18584047 L104.561408,8.18584047 Z M98.3166746,1.35549983 C97.6824438,1.35549983 97.1555444,1.56629154 96.7049822,1.99993661 C96.2578639,2.43070986 96.0409053,2.97348415 96.0409053,3.66099826 C96.0409053,4.22330094 96.1740651,4.75401358 96.4380888,5.23820272 C96.6894852,5.70286346 97.080929,6.23300174 97.6020888,6.81770463 C98.617432,6.29273563 99.3750651,5.75283316 99.8577692,5.21178196 C100.351953,4.65694601 100.592444,4.08602786 100.592444,3.46571439 C100.592444,2.82012887 100.386391,2.32043191 99.9622308,1.93675653 C99.5300355,1.54561442 98.9916568,1.35549983 98.3166746,1.35549983 L98.3166746,1.35549983 Z M96.1005976,1.80695019 C95.6483136,2.32789864 95.4279112,2.94591466 95.4279112,3.68914211 C95.4279112,3.96713445 95.4543136,4.2336395 95.5053964,4.48119053 C95.5559053,4.72586973 95.6465917,4.98433368 95.7757337,5.25026437 C95.9071716,5.52423615 96.0862485,5.81945942 96.3072249,6.12846743 C96.4036509,6.26344305 96.5132781,6.40645977 96.6343846,6.55636886 C96.3433846,6.18418077 96.1092071,5.83554162 95.933574,5.5121745 C95.6236331,4.94355381 95.4663669,4.32036851 95.4663669,3.66099826 C95.4663669,2.93212992 95.6798817,2.31009335 96.1005976,1.80695019 L96.1005976,1.80695019 Z M99.7343669,1.0918666 C99.9564911,1.20157018 100.160822,1.34171508 100.347361,1.5105782 C100.891479,2.00223406 101.166408,2.66045559 101.166408,3.46571439 C101.166408,4.17964925 100.902385,4.85797353 100.382373,5.48288192 C100.390408,5.47426646 100.39787,5.46565099 100.405905,5.45760989 C100.94371,4.88554302 101.204864,4.20664437 101.204864,3.38185719 C101.204864,2.67538906 100.955189,2.08609126 100.441491,1.58007628 C100.233142,1.37445385 99.9983905,1.21248311 99.7343669,1.0918666 L99.7343669,1.0918666 Z" id="Fill-14" sketch:type="MSShapeGroup"></path>
                <path d="M129.321663,8.23293835 C129.321663,9.47816022 129.113314,10.5516472 128.694893,11.4522504 C128.277621,12.3545768 127.715136,13.0972299 127.00916,13.6825071 C126.303757,14.2683588 125.468065,14.7048757 124.502083,14.9926322 C123.536675,15.2809631 122.514444,15.4251285 121.43826,15.4251285 L117.287349,15.4251285 L117.287349,0.928747126 L121.43826,0.928747126 C122.514444,0.928747126 123.531509,1.07348694 124.488308,1.36124347 C125.444533,1.64957436 126.280225,2.09068617 126.995385,2.68515326 C127.70997,3.28019471 128.277621,4.0372069 128.694893,4.95733856 C129.113314,5.87689586 129.321663,6.96876245 129.321663,8.23293835 L129.321663,8.23293835 Z M117.899769,1.48645489 L117.899769,14.8674208 L121.298787,14.8674208 C122.357178,14.8674208 123.341527,14.7278502 124.251834,14.4492835 C125.161568,14.1707168 125.946178,13.7571745 126.605663,13.2092309 C127.264574,12.6612874 127.779994,11.9726245 128.151923,11.1461142 C128.522704,10.319604 128.708669,9.34777952 128.708669,8.23293835 C128.708669,7.11752281 128.522704,6.13765726 128.151923,5.29219296 C127.779994,4.4461543 127.264574,3.74428109 126.605663,3.18714768 C125.946178,2.62943992 125.161568,2.20670777 124.251834,1.91895124 C123.341527,1.63119471 122.357178,1.48645489 121.298787,1.48645489 L117.899769,1.48645489 L117.899769,1.48645489 Z" id="Fill-15" sketch:type="MSShapeGroup"></path>
                <path d="M121.43826,15.7123107 L117.000367,15.7123107 L117.000367,0.64156496 L121.43826,0.64156496 C122.536254,0.64156496 123.589479,0.791474051 124.570959,1.08612295 C125.559899,1.38421804 126.436917,1.84773006 127.178479,2.46459735 C127.924633,3.0854852 128.522704,3.88385162 128.956047,4.83844514 C129.388817,5.79074121 129.608645,6.9325775 129.608645,8.23293835 C129.608645,9.5154939 129.388817,10.6395249 128.954899,11.5734413 C128.521556,12.5090808 127.928651,13.2930881 127.192828,13.9036374 C126.459876,14.5113149 125.582284,14.970232 124.58416,15.2683271 C123.596367,15.5624016 122.537976,15.7123107 121.43826,15.7123107 L121.43826,15.7123107 Z M117.574331,15.1379464 L117.612787,15.1379464 L117.612787,1.21592929 L117.574331,1.21592929 L117.574331,15.1379464 Z M122.718201,1.28944793 C123.28126,1.36354093 123.823083,1.48185998 124.337929,1.64497945 C125.280953,1.94307454 126.10574,2.38878126 126.791053,2.96774051 C127.480959,3.55129467 128.027373,4.29452212 128.414799,5.17617137 C128.800503,6.05609753 128.995651,7.08420968 128.995651,8.23293835 C128.995651,9.38339011 128.799929,10.4028868 128.413651,11.2638589 C128.025077,12.1271285 127.479237,12.8559969 126.789331,13.4303612 C126.10287,14.0001306 125.277509,14.4354988 124.335633,14.7238297 C123.894254,14.8593797 123.433361,14.9621909 122.955249,15.0339864 C123.458615,14.9644883 123.948207,14.8588053 124.42058,14.7175117 C125.344089,14.4423912 126.153379,14.019659 126.826065,13.4613769 C127.496456,12.9065409 128.037704,12.1891599 128.434314,11.3316339 C128.832645,10.4735336 129.03468,9.43163671 129.03468,8.23293835 C129.03468,7.01528596 128.832071,5.95328631 128.43374,5.07623197 C128.036556,4.20090073 127.490716,3.47145803 126.81229,2.90628352 C126.129846,2.33938593 125.319982,1.91205886 124.405083,1.63578962 C123.865556,1.47381888 123.301349,1.35779728 122.718201,1.28944793 L122.718201,1.28944793 Z M118.186751,14.5802386 L121.298787,14.5802386 C122.323314,14.5802386 123.288148,14.4441142 124.167462,14.174163 C125.036444,13.9088067 125.795225,13.5090491 126.422568,12.9881007 C127.044172,12.4711728 127.537781,11.8112281 127.890195,11.0283696 C128.243183,10.2420648 128.42226,9.30125601 128.42226,8.23293835 C128.42226,7.16404633 128.242609,6.21347335 127.889047,5.4076402 C127.536633,4.60640195 127.043024,3.93267259 126.420272,3.40598049 C125.793503,2.87641658 125.034722,2.4686179 124.164592,2.19234866 C123.285278,1.91435632 122.321592,1.77363706 121.298787,1.77363706 L118.186751,1.77363706 L118.186751,14.5802386 L118.186751,14.5802386 Z" id="Fill-16" sketch:type="MSShapeGroup"></path>
                <path d="M133.834746,15.4251285 L133.834746,0.928747126 L142.303592,0.928747126 L142.303592,1.48645489 L134.447166,1.48645489 L134.447166,7.61951724 L141.830071,7.61951724 L141.830071,8.17722501 L134.447166,8.17722501 L134.447166,14.8674208 L142.609515,14.8674208 L142.609515,15.4251285 L133.834746,15.4251285" id="Fill-17" sketch:type="MSShapeGroup"></path>
                <path d="M142.896497,15.7123107 L133.547763,15.7123107 L133.547763,0.64156496 L142.590574,0.64156496 L142.590574,1.77363706 L134.734722,1.77363706 L134.734722,7.33233507 L142.117053,7.33233507 L142.117053,8.46440718 L134.734722,8.46440718 L134.734722,14.5802386 L142.896497,14.5802386 L142.896497,15.7123107 L142.896497,15.7123107 Z M134.121728,15.1379464 L134.160183,15.1379464 L134.160183,1.21592929 L134.121728,1.21592929 L134.121728,15.1379464 Z" id="Fill-18" sketch:type="MSShapeGroup"></path>
                <path d="M154.365456,11.9123163 C154.365456,12.5446914 154.244349,13.1018248 154.003284,13.5854396 C153.761645,14.0690543 153.441373,14.4774274 153.042467,14.8117074 C152.642988,15.1465618 152.173485,15.3969847 151.63568,15.5641247 C151.096154,15.7312647 150.539408,15.8156963 149.964296,15.8156963 C149.072355,15.8156963 148.25503,15.6525768 147.51232,15.3274866 C146.769036,15.0023964 146.156615,14.5520947 145.673911,13.975433 L146.147432,13.5572957 C146.630136,14.0966238 147.201231,14.5055712 147.860716,14.7841379 C148.519627,15.0627046 149.211828,15.2017008 149.936172,15.2017008 C150.437817,15.2017008 150.920521,15.1322027 151.384284,14.9926322 C151.848621,14.853636 152.252692,14.6445674 152.596497,14.3654263 C152.939728,14.0868596 153.218675,13.7428154 153.432189,13.3344424 C153.645704,12.9260693 153.752462,12.4516444 153.752462,11.9123163 C153.752462,11.3546085 153.645704,10.8910965 153.432189,10.518334 C153.218675,10.1472947 152.931118,9.83139429 152.568947,9.57120724 C152.206775,9.3110202 151.797538,9.09276176 151.342959,8.91585754 C150.887805,8.73952769 150.427485,8.57698258 149.964296,8.42822222 C149.388036,8.24212818 148.853675,8.04684431 148.362361,7.8423706 C147.869899,7.63847126 147.44287,7.38230477 147.080698,7.07559422 C146.718527,6.76945803 146.434988,6.40243922 146.231231,5.97453779 C146.026325,5.54721073 145.924734,5.02683664 145.924734,4.41341553 C145.924734,3.80056879 146.045266,3.25262522 146.286905,2.76901045 C146.527396,2.28539568 146.853408,1.87644828 147.262071,1.54216823 C147.67016,1.20731383 148.14368,0.952296064 148.682059,0.77539185 C149.221012,0.599636364 149.786941,0.510609892 150.381568,0.510609892 C151.16216,0.510609892 151.876746,0.659944619 152.526473,0.956890979 C153.176775,1.2544117 153.70597,1.66335911 154.114633,2.18315883 L153.641112,2.60187043 C153.269183,2.11825566 152.800828,1.75181122 152.234325,1.50023964 C151.667822,1.24924242 151.041053,1.124031 150.353444,1.124031 C149.87074,1.124031 149.401811,1.19410345 148.947231,1.33309962 C148.491503,1.47267015 148.088006,1.6811644 147.735592,1.96030547 C147.382604,2.23887217 147.095047,2.58349077 146.871775,2.99186381 C146.648503,3.40138558 146.537154,3.87466179 146.537154,4.41341553 C146.537154,4.95274364 146.63932,5.40821456 146.843651,5.77925392 C147.047982,6.15201637 147.313154,6.46734239 147.638018,6.72752943 C147.962308,6.98829084 148.334237,7.20654929 148.752083,7.38230477 C149.169929,7.55920899 149.591793,7.71256426 150.019396,7.8423706 C150.632391,8.04684431 151.203485,8.25648729 151.733254,8.46957645 C152.26245,8.68381435 152.721621,8.94342703 153.111917,9.25013758 C153.502213,9.55684814 153.808136,9.92386695 154.031408,10.351194 C154.254107,10.7790954 154.365456,11.2994695 154.365456,11.9123163" id="Fill-19" sketch:type="MSShapeGroup"></path>
                <path d="M149.964296,16.1028784 C149.037917,16.1028784 148.174101,15.9305691 147.397527,15.5905455 C146.616935,15.249373 145.962615,14.7674814 145.453509,14.1598039 L145.274432,13.9449916 L146.170964,13.1535176 L146.360947,13.365458 C146.813231,13.8703243 147.355053,14.2585946 147.972065,14.519356 C149.021272,14.9627652 150.236929,15.038007 151.302207,14.718086 C151.728089,14.5900028 152.102314,14.396442 152.415698,14.142573 C152.726787,13.8898527 152.983349,13.5733779 153.177349,13.2011898 C153.368479,12.8353197 153.465479,12.4016747 153.465479,11.9123163 C153.465479,11.4091731 153.370201,10.9887384 153.183089,10.6613507 C152.990811,10.3276451 152.727935,10.0387398 152.401349,9.80439916 C152.061562,9.56029432 151.670692,9.35122571 151.239071,9.18351132 C150.802858,9.01407384 150.34426,8.8521031 149.875905,8.70104528 C149.294479,8.51380251 148.748065,8.31392372 148.251586,8.10772692 C147.735592,7.89348903 147.278716,7.61951724 146.895308,7.29500139 C146.502716,6.96301881 146.192201,6.56038941 145.972373,6.09802612 C145.750249,5.63451411 145.637751,5.06761651 145.637751,4.41341553 C145.637751,3.7586402 145.769763,3.16187565 146.029769,2.64035284 C146.287479,2.1239993 146.641041,1.67944131 147.080124,1.3204636 C147.512893,0.964932079 148.022,0.689811564 148.593095,0.502568791 C149.90403,0.074092999 151.439385,0.144739812 152.645858,0.695555207 C153.335189,1.01088123 153.905136,1.45199303 154.340201,2.00625462 L154.507799,2.21934378 L153.600935,3.02000766 L153.413249,2.77705155 C153.073462,2.33421665 152.637822,1.99304424 152.118385,1.76272414 C151.220704,1.36641275 150.065888,1.29117102 149.031604,1.60822013 C148.611462,1.73630338 148.235515,1.93043852 147.912947,2.18545629 C147.593822,2.43817659 147.328077,2.75580007 147.123172,3.12971125 C146.925154,3.4944326 146.824136,3.92635458 146.824136,4.41341553 C146.824136,4.90162522 146.915396,5.31459317 147.095047,5.64083211 C147.279864,5.97798398 147.522651,6.2674636 147.817095,6.50295298 C148.119574,6.74590909 148.47084,6.95210589 148.864006,7.11752281 C149.274391,7.29155521 149.691089,7.44318739 150.102621,7.56725009 C150.723077,7.77459561 151.305077,7.98768478 151.840012,8.2030714 C152.393888,8.42764786 152.881183,8.70334274 153.289272,9.0244124 C153.709414,9.35467189 154.044609,9.75672692 154.285675,10.2185158 C154.529036,10.6848997 154.652438,11.2546691 154.652438,11.9123163 C154.652438,12.5854713 154.520426,13.1914256 154.259846,13.7140972 C154.002136,14.2298763 153.654314,14.67386 153.22671,15.0322633 C152.800254,15.3895179 152.293444,15.6606179 151.720627,15.8386708 C151.155272,16.0144263 150.564089,16.1028784 149.964296,16.1028784 L149.964296,16.1028784 Z M146.080278,13.9995563 C146.502142,14.4412424 147.02158,14.7990714 147.627112,15.0644277 C148.331367,15.372287 149.117698,15.5285141 149.964296,15.5285141 C150.506692,15.5285141 151.040479,15.4481031 151.55016,15.2901529 C152.050083,15.1345002 152.490314,14.8995852 152.858225,14.5911515 C153.224988,14.284441 153.524024,13.9024887 153.746148,13.456782 C153.96655,13.0156701 154.078473,12.4958704 154.078473,11.9123163 C154.078473,11.3482905 153.976882,10.8681219 153.776568,10.4844465 C153.573959,10.0950275 153.29042,9.7555782 152.934562,9.47643713 C152.75032,9.33169732 152.54771,9.19614734 152.327308,9.07208464 C152.469651,9.15594183 152.606254,9.2449683 152.736544,9.33801533 C153.12971,9.62060258 153.447686,9.96981609 153.680716,10.3753173 C153.918911,10.7905827 154.039444,11.3075106 154.039444,11.9123163 C154.039444,12.4958704 153.920633,13.0191163 153.686456,13.4671205 C153.455722,13.9093811 153.149799,14.2867384 152.776722,14.5888541 C152.405941,14.8903953 151.964562,15.118418 151.466935,15.2677527 C150.277107,15.626156 148.920254,15.5440219 147.748793,15.0489199 C147.140391,14.7916047 146.596846,14.4245859 146.129639,13.9564789 L146.080278,13.9995563 L146.080278,13.9995563 Z M150.381568,0.797792059 C149.821953,0.797792059 149.279556,0.882223615 148.771598,1.04878927 C148.268231,1.21363184 147.821686,1.45429049 147.444018,1.76444723 C147.067497,2.07230651 146.764444,2.45311007 146.543467,2.89766806 C146.323065,3.3382055 146.211716,3.84824103 146.211716,4.41341553 C146.211716,4.98146186 146.305272,5.46450226 146.490089,5.8504751 C146.674905,6.23874538 146.936059,6.57762034 147.266663,6.85618704 C147.604154,7.14279485 148.009947,7.38517659 148.471988,7.57701428 C148.515036,7.59481958 148.558657,7.61319923 148.602278,7.63043016 C148.175822,7.44778231 147.791266,7.2191853 147.457793,6.95095716 C147.104805,6.66894427 146.813231,6.32087948 146.592254,5.91710136 C146.364964,5.5058565 146.250172,4.99984152 146.250172,4.41341553 C146.250172,3.82928701 146.374722,3.30489237 146.619231,2.85401637 C146.861444,2.41175583 147.177124,2.0355472 147.557663,1.73458029 C147.936479,1.43591083 148.375562,1.20788819 148.863432,1.05855347 C150.029728,0.701298851 151.327462,0.784581679 152.350266,1.23775514 C152.862817,1.46462905 153.306491,1.78512435 153.67268,2.19119993 L153.714006,2.15444061 C153.361592,1.76846778 152.923083,1.45429049 152.407089,1.21822675 C151.796964,0.939085684 151.115669,0.797792059 150.381568,0.797792059 L150.381568,0.797792059 Z" id="Fill-20" sketch:type="MSShapeGroup"></path>
                <path d="M158.710941,0.928747126 L159.323361,0.928747126 L159.323361,15.4251285 L158.710941,15.4251285 L158.710941,0.928747126 Z" id="Fill-21" sketch:type="MSShapeGroup"></path>
                <path d="M158.423959,0.64156496 L159.610343,0.64156496 L159.610343,15.7123107 L158.423959,15.7123107 L158.423959,0.64156496 Z M158.997923,15.1379464 L159.036379,15.1379464 L159.036379,1.21592929 L158.997923,1.21592929 L158.997923,15.1379464 Z" id="Fill-22" sketch:type="MSShapeGroup"></path>
                <path d="M174.40887,15.4251285 C173.526112,15.6847412 172.527988,15.8156963 171.413923,15.8156963 C170.280343,15.8156963 169.249503,15.619838 168.321402,15.2286959 C167.392728,14.8381282 166.594343,14.2982257 165.925675,13.6089885 C165.257006,12.9203257 164.74216,12.105877 164.379414,11.1656426 C164.017243,10.2259826 163.836444,9.21567572 163.836444,8.13529641 C163.836444,7.05549147 164.021834,6.05035388 164.393189,5.11873494 C164.765118,4.18826472 165.279964,3.37841101 165.940024,2.68917381 C166.598361,2.00051097 167.388136,1.46462905 168.307627,1.08325113 C169.226544,0.701873215 170.243609,0.510609892 171.357675,0.510609892 C172.360964,0.510609892 173.280456,0.669134448 174.116148,0.985034831 C174.95184,1.30093521 175.666426,1.72768791 176.261053,2.26701602 L175.815657,2.71272274 C175.27613,2.17454336 174.598852,1.77536015 173.781527,1.51402438 C172.964201,1.2544117 172.146876,1.124031 171.330124,1.124031 C170.290101,1.124031 169.347077,1.31012504 168.502201,1.6811644 C167.657325,2.05392685 166.932982,2.55534692 166.329172,3.18714768 C165.725935,3.81894845 165.261598,4.56275026 164.936734,5.41683002 C164.611296,6.27263288 164.449438,7.18300035 164.449438,8.14908116 C164.449438,9.11573633 164.606704,10.0266782 164.922959,10.8813323 C165.238639,11.7359864 165.698385,12.4889781 166.301621,13.1391585 C166.904858,13.7899133 167.638959,14.3056924 168.502201,14.686496 C169.366018,15.0672995 170.345201,15.2579885 171.442047,15.2579885 C172.388515,15.2579885 173.237982,15.1557517 173.99045,14.951278 C174.742917,14.7468042 175.415604,14.4866172 176.010231,14.1707168 L176.010231,8.76250226 L172.33284,8.76250226 L172.33284,8.2047945 L176.623225,8.2047945 L176.623225,14.5325664 C176.028598,14.8674208 175.290479,15.1649415 174.40887,15.4251285" id="Fill-23" sketch:type="MSShapeGroup"></path>
                <path d="M171.413923,16.1028784 C170.247627,16.1028784 169.170296,15.8978304 168.210053,15.4934779 C167.249811,15.0891254 166.412396,14.5228022 165.720195,13.8094417 C165.027994,13.0966555 164.486746,12.241427 164.111373,11.2690282 C163.73887,10.3000756 163.549462,9.24554267 163.549462,8.13529641 C163.549462,7.02390143 163.744036,5.9728147 164.12687,5.01190317 C164.510852,4.05041728 165.051527,3.20208116 165.732249,2.49101811 C166.41584,1.77593452 167.245219,1.21305747 168.197426,0.818469175 C169.147911,0.423880878 170.211467,0.223427726 171.357675,0.223427726 C172.390237,0.223427726 173.352775,0.388844653 174.21774,0.716232323 C175.083278,1.04419436 175.835746,1.49392163 176.453905,2.05450122 L176.677178,2.25667746 L175.815657,3.11879833 L175.612473,2.91604772 C175.108533,2.41290456 174.463396,2.03324974 173.69371,1.78799617 C171.906385,1.21937548 170.055349,1.3124225 168.618142,1.94422327 C167.811148,2.29975479 167.110911,2.78451829 166.536947,3.38530338 C165.963556,3.98608847 165.514716,4.70404389 165.204201,5.51906688 C164.893686,6.33696169 164.73642,7.22148276 164.73642,8.14908116 C164.73642,9.07782828 164.890243,9.96349808 165.192148,10.7813929 C165.492905,11.5969902 165.937728,12.3247099 166.512266,12.9433002 C167.085083,13.562465 167.793355,14.0598645 168.618142,14.4234371 C169.441781,14.7870098 170.391118,14.9708063 171.442047,14.9708063 C172.359243,14.9708063 173.191491,14.8708669 173.91526,14.6744343 C174.579337,14.4935096 175.187166,14.2660613 175.723249,13.9961101 L175.723249,9.04968443 L172.045858,9.04968443 L172.045858,7.91761233 L176.910207,7.91761233 L176.910207,14.7002807 L176.763846,14.7829892 C176.154296,15.1270334 175.389201,15.4354671 174.489799,15.7008234 C173.583509,15.9673285 172.548077,16.1028784 171.413923,16.1028784 L171.413923,16.1028784 Z M176.297213,8.49197666 L176.297213,14.3430261 L176.145112,14.4240115 C175.757686,14.6302083 175.334675,14.8145792 174.880095,14.9748269 C175.43397,14.7875841 175.921266,14.5825361 176.336243,14.3625545 L176.336243,8.49197666 L176.297213,8.49197666 L176.297213,8.49197666 Z M171.357675,0.797792059 C170.287805,0.797792059 169.29829,0.983311738 168.417254,1.34860745 C167.539089,1.71332881 166.775142,2.23140543 166.147225,2.88790387 C165.516438,3.54612539 165.016515,4.33243016 164.659509,5.22499234 C164.303651,6.11812887 164.123426,7.0968457 164.123426,8.13529641 C164.123426,9.17489586 164.299059,10.1599307 164.647456,11.0622571 C164.99413,11.962286 165.493479,12.7520369 166.131728,13.4085354 C166.666089,13.9593507 167.295728,14.4159704 168.008018,14.7703532 C167.271047,14.3947189 166.627633,13.9134016 166.090976,13.3344424 C165.464781,12.6595643 164.981503,11.8680902 164.653769,10.9806973 C164.327757,10.0996224 164.162456,9.146752 164.162456,8.14908116 C164.162456,7.15198467 164.332923,6.19796552 164.668118,5.31516754 C165.006183,4.42777464 165.494627,3.64491606 166.12197,2.98841762 C166.74874,2.33249356 167.510391,1.80465273 168.386834,1.41810554 C169.952609,0.730017067 171.945988,0.629503309 173.868195,1.24062696 C174.624107,1.48185998 175.274982,1.84198642 175.809343,2.31296517 L175.839189,2.28309822 C175.320325,1.8615148 174.707905,1.51574747 174.014556,1.25326297 C173.21445,0.951147335 172.320787,0.797792059 171.357675,0.797792059 L171.357675,0.797792059 Z" id="Fill-24" sketch:type="MSShapeGroup"></path>
                <path d="M192.501953,15.4251285 L182.695769,1.7650216 L182.640095,1.7650216 L182.640095,15.4251285 L182.027101,15.4251285 L182.027101,0.928747126 L182.862793,0.928747126 L192.668976,14.5888541 L192.724651,14.5888541 L192.724651,0.928747126 L193.337645,0.928747126 L193.337645,15.4251285 L192.501953,15.4251285" id="Fill-25" sketch:type="MSShapeGroup"></path>
                <path d="M193.624627,15.7123107 L192.354444,15.7123107 L182.927077,2.57947022 L182.927077,15.7123107 L181.740118,15.7123107 L181.740118,0.64156496 L183.010302,0.64156496 L192.437669,13.7744054 L192.437669,0.64156496 L193.624627,0.64156496 L193.624627,15.7123107 L193.624627,15.7123107 Z M192.649462,15.1379464 L193.050663,15.1379464 L193.050663,1.21592929 L193.011633,1.21592929 L193.011633,14.8760362 L192.577142,14.8760362 L192.435947,14.7565684 L182.715284,1.21592929 L182.314083,1.21592929 L182.314083,15.1379464 L182.353112,15.1379464 L182.353112,1.47783943 L182.787604,1.47783943 L182.928799,1.59730721 L192.649462,15.1379464 L192.649462,15.1379464 Z" id="Fill-26" sketch:type="MSShapeGroup"></path>
            </g>
        </g>
    </g>
</svg>