<?xml version="1.0" encoding="UTF-8" standalone="no"?>
<svg width="551px" height="755px" viewBox="0 0 551 755" version="1.1" xmlns="http://www.w3.org/2000/svg" xmlns:xlink="http://www.w3.org/1999/xlink" xmlns:sketch="http://www.bohemiancoding.com/sketch/ns">
    <!-- Generator: Sketch 3.5.2 (25235) - http://www.bohemiancoding.com/sketch -->
    <title>Fill 3</title>
    <desc>Created with Sketch.</desc>
    <defs></defs>
    <g id="Page-1" stroke="none" stroke-width="1" fill="none" fill-rule="evenodd" sketch:type="MSPage">
        <g id="Desktop-Copy-11" sketch:type="MSArtboardGroup" transform="translate(-65.000000, -10.000000)" fill="#000000" opacity="0.100000001">
            <path d="M615.557513,483.726885 C615.557513,446.485417 604.835893,421.450522 583.708738,409.294703 C567.322865,399.866966 546.11985,399.080263 520.681289,406.934597 C515.95265,408.393803 511.540096,410.030651 507.570062,411.642121 C507.810287,409.205882 508.088442,406.833087 508.316024,404.384159 C514.258431,341.092696 513.815912,296.073027 513.790625,294.182404 L513.638904,280.795777 L65.5560964,280.795777 L66.0365463,294.791464 C79.9569518,703.318315 207.149758,761.140929 212.548498,763.399525 L215.039252,764.440002 L371.387785,764.440002 L375.10495,761.420081 C410.291588,732.857715 439.333524,687.977622 461.788238,627.756835 C515.800929,620.981045 615.557513,582.534146 615.557513,483.726885 Z M524.878904,579.501536 C505.016091,589.830175 484.90041,595.489356 471.81447,598.395078 C473.685696,592.40599 475.531636,586.315393 477.289071,580.07253 C488.832514,539.176703 497.758768,493.218066 504.029905,443.186343 C516.47103,436.245599 550.92435,421.653542 570.294069,432.79426 C582.419109,439.77307 588.576455,456.902877 588.576455,483.726885 C588.589098,525.282526 567.145858,557.51194 524.878904,579.501536 Z M486.746349,307.898938 C486.531411,321.856558 485.82338,345.914419 483.636068,375.834481 C426.626887,414.17987 353.965152,400.450648 283.579232,387.102088 C271.858782,384.881557 260.783146,382.787914 249.720153,380.90998 C191.358126,371.050824 130.973152,379.450774 98.4669188,385.795147 C96.3428242,361.496199 94.6612494,335.573092 93.5106982,307.898938 L486.746349,307.898938 Z M361.728212,737.400286 L221.120737,737.400286 C207.516417,729.06378 128.457111,669.946914 101.09675,412.936373 C130.897291,406.998041 189.840916,398.255495 245.244382,407.619789 C256.041863,409.446968 266.991065,411.515234 278.572438,413.710387 C314.80848,420.574998 353.332981,427.883716 391.086233,427.883716 C422.075256,427.883716 452.533255,422.947794 480.766012,408.82522 C474.709813,469.693132 464.847946,524.825732 451.344773,572.68768 C429.686594,649.479968 399.544681,704.853653 361.728212,737.400286 Z M325.884116,238.986361 C318.652079,238.986361 312.659098,233.22567 312.40623,225.916953 C310.762585,177.851985 321.256624,166.127584 339.943599,149.556082 C344.368796,145.63526 348.945714,141.574861 354.078942,136.131389 C374.409562,114.48439 369.605062,82.2422871 369.554489,81.9250685 C368.391294,74.5655961 373.372801,67.6121635 380.705985,66.4194214 C388.051812,65.2139906 394.942476,70.1626014 396.168888,77.5220738 C396.47233,79.3746306 403.375637,123.138114 373.70153,154.720402 C367.733836,161.064774 362.46153,165.734233 357.808751,169.858075 C343.45847,182.584887 338.085016,187.343166 339.374645,224.990674 C339.627513,232.464346 333.798897,238.732586 326.351922,238.986361 L325.884116,238.986361 Z M231.918218,232.400902 C224.711468,232.400902 218.731131,226.678278 218.452975,219.394938 C215.987508,156.344561 230.565372,141.968212 258.747555,120.029371 C265.296847,114.928496 272.718534,109.155116 280.734463,101.668757 C313.417703,71.1523235 306.008659,27.8202575 305.67993,25.9930781 C304.352371,18.6589832 309.169514,11.6040407 316.477411,10.2336562 C323.810595,8.86327164 330.802406,13.6596175 332.193182,20.9810236 C332.648345,23.3918853 342.914803,80.6181277 299.117995,121.501266 C290.217028,129.812394 282.289603,135.979124 275.285149,141.435285 C252.716644,159.009198 243.373156,166.279849 245.408747,218.341772 C245.699546,225.815443 239.908859,232.109061 232.461885,232.400902 C232.272233,232.388213 232.095226,232.400902 231.918218,232.400902 Z" id="Fill-3" sketch:type="MSShapeGroup"></path>
        </g>
    </g>
</svg>