<?xml version="1.0" encoding="UTF-8" standalone="no"?>
<svg width="200px" height="85px" viewBox="0 0 200 85" version="1.1" xmlns="http://www.w3.org/2000/svg" xmlns:xlink="http://www.w3.org/1999/xlink" xmlns:sketch="http://www.bohemiancoding.com/sketch/ns">
    <!-- Generator: Sketch 3.5.2 (25235) - http://www.bohemiancoding.com/sketch -->
    <title>roasterie-logo</title>
    <desc>Created with Sketch.</desc>
    <defs></defs>
    <g id="Page-1" stroke="none" stroke-width="1" fill="none" fill-rule="evenodd" sketch:type="MSPage">
        <g id="Desktop-Copy-11" sketch:type="MSArtboardGroup" transform="translate(-558.000000, -2661.000000)" fill="#FFFFFF">
            <g id="roasterie-logo" sketch:type="MSLayerGroup" transform="translate(558.000000, 2661.000000)">
                <path d="M84.3946188,37.8475336 C84.3946188,31.8834081 89.2825112,27.0403587 95.2017937,27.0403587 L95.2017937,31.8834081 C91.8834081,31.8834081 89.2376682,34.4843049 89.2376682,37.8475336 C89.2376682,39.6412556 89.955157,41.1659193 91.9730942,42.8699552 C94.2600897,44.7533632 97.4439462,47.9372197 97.4439462,53.2286996 C97.4439462,60.2690583 91.6591928,65.9641256 84.6188341,65.9641256 L84.6188341,61.1210762 C89.0134529,61.1210762 92.6008969,57.5784753 92.6008969,53.1838565 C92.6008969,51.0762332 91.4349776,48.6547085 88.9237668,46.5022422 C85.9192825,44.0358744 84.3946188,41.2556054 84.3946188,37.8475336 L84.3946188,37.8475336 Z" id="Shape" sketch:type="MSShapeGroup"></path>
                <path d="M106.143498,65.7399103 L106.143498,31.8834081 L98.9237668,31.8834081 L98.9237668,27.3542601 L118.161435,27.3542601 L118.161435,31.8834081 L110.941704,31.8834081 L110.941704,65.7399103 L106.143498,65.7399103 L106.143498,65.7399103 Z" id="Shape" sketch:type="MSShapeGroup"></path>
                <path d="M121.524664,65.7399103 L121.524664,27.3542601 L135.919283,27.3542601 L135.919283,31.8834081 L126.32287,31.8834081 L126.32287,51.6143498 L135.874439,51.6143498 L135.874439,56.1434978 L126.32287,56.1434978 L126.32287,61.1659193 L135.919283,61.1659193 L135.919283,65.6950673 L121.524664,65.6950673 L121.524664,65.7399103 Z" id="Shape" sketch:type="MSShapeGroup"></path>
                <path d="M145.246637,65.7399103 L140.403587,65.7399103 L140.403587,27.3542601 L143.049327,27.3542601 C155.784753,27.3542601 159.55157,35.6502242 159.55157,41.7488789 C159.55157,47.7130045 155.874439,52.9147982 150.538117,55.0672646 L159.910314,65.7399103 L153.587444,65.7399103 L145.246637,55.8744395 L145.246637,65.7399103 L145.246637,65.7399103 Z M145.246637,51.6143498 C150.493274,51.4798206 154.753363,47.0852018 154.753363,41.7488789 C154.753363,36.4125561 150.58296,32.0179372 145.246637,31.793722 L145.246637,51.6143498 L145.246637,51.6143498 Z" id="Shape" sketch:type="MSShapeGroup"></path>
                <path d="M163.2287,65.7399103 L163.2287,27.3542601 L168.071749,27.3542601 L168.071749,65.7399103 L163.2287,65.7399103 L163.2287,65.7399103 Z" id="Shape" sketch:type="MSShapeGroup"></path>
                <path d="M173.2287,65.7399103 L173.2287,27.3542601 L187.623318,27.3542601 L187.623318,31.8834081 L178.026906,31.8834081 L178.026906,51.6143498 L187.578475,51.6143498 L187.578475,56.1434978 L178.026906,56.1434978 L178.026906,61.1659193 L187.623318,61.1659193 L187.623318,65.6950673 L173.2287,65.6950673 L173.2287,65.7399103 Z" id="Shape" sketch:type="MSShapeGroup"></path>
                <path d="M66.5919283,26.367713 L50.8520179,66.0538117 L55.7847534,66.0538117 L60.0896861,55.7399103 L72.8699552,55.7399103 L77.3991031,66.0538117 L82.3318386,66.0538117 L66.5919283,26.367713 L66.5919283,26.367713 Z M71.5695067,51.3452915 L61.5695067,51.3452915 L66.5919283,38.161435 L71.5695067,51.3452915 L71.5695067,51.3452915 Z" id="Shape" sketch:type="MSShapeGroup"></path>
                <path d="M74.573991,19.8206278 C74.1255605,20.1793722 73.1838565,20.9865471 71.2556054,20.941704 C69.3273543,20.896861 68.3408072,18.9237668 68.3408072,18.9237668 L76.1434978,13.7668161 C76.1434978,13.7668161 73.2286996,9.8206278 68.8340807,11.9730942 C65.0672646,13.8116592 65.9641256,18.206278 65.9641256,18.206278 L63.3632287,19.8206278 L65.7399103,11.1210762 L63.5426009,11.1210762 L58.9237668,14.0358744 L62.8251121,0 L60.4035874,0 L58.5201794,5.78475336 L32.2869955,5.73991031 L31.4349776,8.07174888 L50.8520179,8.07174888 L46.9506726,22.735426 L48.8789238,22.735426 L53.1838565,8.02690583 L57.8923767,8.02690583 L53.9910314,22.6008969 L56.1434978,22.6008969 L57.9372197,17.0852018 L62.4215247,14.3497758 L59.955157,22.735426 L62.2421525,22.735426 L66.5022422,20.044843 C66.5022422,20.044843 66.5022422,20.2242152 67.1300448,20.896861 C67.7578475,21.5695067 68.5201794,22.5112108 71.1210762,22.9596413 C73.7219731,23.4080717 75.1121076,21.9730942 75.1121076,21.9730942 L75.1121076,19.2376682 C75.2017937,19.2376682 75.0224215,19.4618834 74.573991,19.8206278 L74.573991,19.8206278 L74.573991,19.8206278 Z M69.7757848,13.8565022 C70.941704,13.0493274 72.5112108,13.7668161 72.5112108,13.7668161 L68.3856502,16.1883408 C68.4304933,16.1434978 68.6098655,14.6188341 69.7757848,13.8565022 L69.7757848,13.8565022 Z" id="Shape" sketch:type="MSShapeGroup"></path>
                <path d="M34.6636771,26.6816143 C33.9461883,26.6816143 33.2286996,26.7264574 32.5112108,26.8161435 C32.8699552,27.9820628 33.2735426,29.5515695 33.5874439,31.5695067 C33.9461883,31.5246637 34.3049327,31.5246637 34.6636771,31.5246637 C42.9596413,31.5246637 49.6412556,38.206278 49.6412556,46.5022422 C49.6412556,54.7982063 42.9596413,61.4798206 34.6636771,61.4798206 C26.367713,61.4798206 19.6860987,54.7982063 19.6860987,46.5022422 C19.6860987,42.9147982 20.941704,39.6412556 23.0044843,37.0852018 C22.9596413,36.5919283 22.9147982,35.9192825 22.8251121,35.0672646 C22.690583,33.9461883 22.5112108,32.6008969 22.1524664,31.1210762 C17.6681614,34.7533632 14.7982063,40.2690583 14.7982063,46.5022422 C14.7982063,57.4439462 23.67713,66.32287 34.6188341,66.32287 C45.5605381,66.32287 54.4394619,57.4439462 54.4394619,46.5022422 C54.4843049,35.5605381 45.6053812,26.6816143 34.6636771,26.6816143 L34.6636771,26.6816143 Z" id="Shape" sketch:type="MSShapeGroup"></path>
                <path d="M32.735426,83.4080717 L16.7713004,65.2466368 C18.206278,64.3497758 19.5964126,63.3632287 20.8520179,62.2869955 C20.3587444,61.8834081 19.5515695,61.1210762 18.6547085,60.044843 C15.8295964,62.3318386 13.1838565,63.7219731 11.7488789,64.3497758 L25.5156951,81.0313901 L23.3632287,81.0313901 L8.87892377,63.5874439 L9.41704036,63.4080717 L10.044843,63.1838565 L10.0896861,63.1838565 C10.1345291,63.1838565 10.1793722,63.1390135 10.2242152,63.1390135 C10.3587444,63.0941704 10.5381166,63.0044843 10.7623318,62.9147982 C11.2556054,62.690583 11.8834081,62.3766816 12.735426,61.9730942 C14.0807175,61.2556054 15.8295964,60.1793722 17.6233184,58.6995516 C16.9506726,57.7578475 16.2780269,56.5919283 15.6950673,55.2914798 C13.67713,57.0403587 11.3452915,58.4753363 8.78923767,59.4618834 L8.78923767,14.3497758 C17.6681614,17.8475336 24.1255605,26.5470852 24.1255605,36.9058296 C24.1255605,41.2556054 23.0044843,45.2914798 21.0313901,48.7892377 L21.1659193,49.3273543 C21.1659193,49.3721973 21.5695067,51.0762332 22.7802691,53.2286996 C25.3811659,49.5515695 27.309417,44.7085202 27.3542601,38.3856502 L27.3542601,37.8475336 C27.3542601,25.7399103 21.5695067,18.8340807 15.7399103,14.7982063 C11.3901345,11.793722 7.04035874,10.4484305 5.11210762,10 L5.11210762,80.941704 L3.3632287,80.941704 L3.3632287,7.89237668 L3.85650224,7.98206278 L4.52914798,8.11659193 L4.52914798,8.11659193 C4.57399103,8.11659193 4.61883408,8.11659193 4.66367713,8.16143498 C4.84304933,8.20627803 5.11210762,8.25112108 5.47085202,8.34080717 C6.14349776,8.52017937 7.13004484,8.78923767 8.25112108,9.19282511 C10.5381166,10 13.632287,11.3452915 16.7264574,13.4529148 C22.8699552,17.7130045 29.058296,25.2017937 29.058296,37.8923767 L29.058296,38.4304933 C29.058296,45.470852 26.7264574,50.8520179 23.7668161,54.8430493 C24.3497758,55.6502242 25.0672646,56.4573991 25.9192825,57.1748879 C30.3139013,51.5695067 32.9147982,44.529148 32.9147982,36.9506726 C32.9147982,21.6143498 22.5112108,8.83408072 8.52017937,5.11210762 C5.69506726,4.48430493 3.04932735,4.12556054 0.448430493,3.99103139 L0,3.99103139 L0,84.0807175 L8.74439462,84.0807175 L8.74439462,68.2959641 L21.838565,84.0807175 L33.3632287,84.0807175 L32.735426,83.4080717 L32.735426,83.4080717 Z" id="Shape" sketch:type="MSShapeGroup"></path>
                <path d="M46.8161435,83.9013453 L45.9641256,81.6143498 L42.7802691,81.6143498 L41.9282511,83.9013453 L40.6726457,83.9013453 L44.3497758,73.9013453 L48.0269058,83.9013453 L46.8161435,83.9013453 L46.8161435,83.9013453 L46.8161435,83.9013453 Z M42.735426,81.6143498 L42.735426,81.4798206 L42.735426,81.6143498 L42.735426,81.6143498 L42.735426,81.6143498 Z M43.2735426,80.3139013 L45.5156951,80.3139013 L44.3946188,77.1300448 L43.2735426,80.3139013 L43.2735426,80.3139013 L43.2735426,80.3139013 Z" id="Shape" sketch:type="MSShapeGroup"></path>
                <path d="M51.0313901,83.9461883 L51.0313901,73.632287 L52.3318386,73.632287 L52.3318386,83.9461883 L51.0313901,83.9461883 L51.0313901,83.9461883 Z" id="Shape" sketch:type="MSShapeGroup"></path>
                <path d="M57.6681614,83.9461883 L56.367713,83.9461883 L56.367713,73.632287 L57.0852018,73.632287 C60.4932735,73.632287 61.5246637,75.8744395 61.5246637,77.4887892 C61.5246637,79.103139 60.5381166,80.4932735 59.103139,81.0762332 L61.6143498,83.9461883 L59.9103139,83.9461883 L57.6681614,81.3004484 L57.6681614,83.9461883 L57.6681614,83.9461883 Z M57.6681614,80.1345291 C59.103139,80.0896861 60.2242152,78.9237668 60.2242152,77.4887892 C60.2242152,76.0538117 59.103139,74.8878924 57.6681614,74.7982063 L57.6681614,80.1345291 L57.6681614,80.1345291 Z" id="Shape" sketch:type="MSShapeGroup"></path>
                <path d="M65.9192825,79.3721973 L65.9192825,78.161435 L69.1479821,78.161435 L69.1479821,79.3721973 L65.9192825,79.3721973 L65.9192825,79.3721973 Z" id="Shape" sketch:type="MSShapeGroup"></path>
                <path d="M74.8878924,83.9461883 L73.5874439,83.9461883 L73.5874439,73.632287 L74.3049327,73.632287 C77.7130045,73.632287 78.7443946,75.8744395 78.7443946,77.4887892 C78.7443946,79.103139 77.7578475,80.4932735 76.32287,81.0762332 L78.8340807,83.9461883 L77.1300448,83.9461883 L74.8878924,81.3004484 L74.8878924,83.9461883 L74.8878924,83.9461883 Z M74.8878924,80.1345291 C76.32287,80.0896861 77.4439462,78.9237668 77.4439462,77.4887892 C77.4439462,76.0538117 76.32287,74.8878924 74.8878924,74.7982063 L74.8878924,80.1345291 L74.8878924,80.1345291 Z" id="Shape" sketch:type="MSShapeGroup"></path>
                <path d="M91.5695067,78.7892377 C91.5695067,81.7488789 89.1928251,84.1255605 86.2331839,84.1255605 C83.2735426,84.1255605 80.896861,81.7488789 80.896861,78.7892377 C80.896861,75.8295964 83.2735426,73.4529148 86.2331839,73.4529148 C89.1928251,73.4529148 91.5695067,75.8295964 91.5695067,78.7892377 L91.5695067,78.7892377 Z M82.1973094,78.7892377 C82.1973094,81.0313901 83.9910314,82.8251121 86.2331839,82.8251121 C88.4753363,82.8251121 90.2690583,81.0313901 90.2690583,78.7892377 C90.2690583,76.5470852 88.4753363,74.7533632 86.2331839,74.7533632 C83.9910314,74.7533632 82.1973094,76.5470852 82.1973094,78.7892377 L82.1973094,78.7892377 Z" id="Shape" sketch:type="MSShapeGroup"></path>
                <path d="M102.242152,76.4573991 C102.242152,74.8430493 103.542601,73.5426009 105.156951,73.5426009 L105.156951,74.8430493 C104.26009,74.8430493 103.542601,75.5605381 103.542601,76.4573991 C103.542601,76.9506726 103.721973,77.3542601 104.26009,77.8026906 C104.887892,78.2959641 105.73991,79.1479821 105.73991,80.5829596 C105.73991,82.4663677 104.170404,83.9910314 102.286996,83.9910314 L102.286996,82.690583 C103.452915,82.690583 104.439462,81.7488789 104.439462,80.5381166 C104.439462,79.955157 104.125561,79.3273543 103.452915,78.7443946 C102.64574,78.1165919 102.242152,77.3542601 102.242152,76.4573991 L102.242152,76.4573991 Z" id="Shape" sketch:type="MSShapeGroup"></path>
                <path d="M109.910314,83.9461883 L109.910314,74.8430493 L107.982063,74.8430493 L107.982063,73.632287 L113.139013,73.632287 L113.139013,74.8430493 L111.210762,74.8430493 L111.210762,83.9461883 L109.910314,83.9461883 L109.910314,83.9461883 Z" id="Shape" sketch:type="MSShapeGroup"></path>
                <path d="M115.695067,83.9461883 L115.695067,73.632287 L119.55157,73.632287 L119.55157,74.8430493 L116.995516,74.8430493 L116.995516,78.9237668 L119.596413,78.9237668 L119.596413,80.1345291 L116.995516,80.1345291 L116.995516,82.690583 L119.55157,82.690583 L119.55157,83.9013453 L115.695067,83.9013453 L115.695067,83.9461883 Z" id="Shape" sketch:type="MSShapeGroup"></path>
                <path d="M122.959641,73.5426009 C123.542601,73.5426009 123.946188,73.632287 124.26009,73.7219731 C126.502242,74.2600897 128.206278,76.32287 128.206278,78.7892377 C128.206278,81.2107623 126.547085,83.2735426 124.26009,83.9013453 C123.991031,83.9461883 123.587444,84.0358744 122.959641,84.0358744 L122.959641,73.5426009 L122.959641,73.5426009 Z M124.26009,82.5112108 C125.784753,81.9730942 126.90583,80.5381166 126.90583,78.7892377 C126.90583,77.0852018 125.784753,75.6053812 124.26009,75.0672646 L124.26009,82.5112108 L124.26009,82.5112108 Z" id="Shape" sketch:type="MSShapeGroup"></path>
                <path d="M142.376682,84.0807175 C139.461883,84.0807175 137.085202,81.7040359 137.085202,78.7892377 L137.085202,78.7892377 C137.085202,75.8744395 139.461883,73.5426009 142.376682,73.5426009 L142.376682,73.5426009 L142.421525,73.5426009 L142.421525,74.9327354 L142.376682,74.9327354 C140.224215,74.9327354 138.475336,76.6816143 138.475336,78.8340807 L138.475336,78.8340807 C138.475336,80.9865471 140.224215,82.735426 142.376682,82.735426 L142.376682,82.735426 L142.421525,82.735426 L142.376682,84.0807175 L142.376682,84.0807175 L142.376682,84.0807175 L142.376682,84.0807175 Z" id="Shape" sketch:type="MSShapeGroup"></path>
                <path d="M159.058296,84.0358744 L159.058296,84.0358744 L159.058296,84.0358744 L159.058296,84.0358744 L159.058296,84.0358744 L159.058296,84.0358744 L159.013453,73.632287 L162.959641,73.632287 L162.959641,74.9327354 L160.403587,74.9327354 L160.403587,78.9237668 L162.959641,78.9237668 L162.959641,80.2242152 L160.403587,80.2242152 L160.403587,84.0358744 L159.058296,84.0358744 L159.058296,84.0358744 L159.058296,84.0358744 Z" id="Shape" sketch:type="MSShapeGroup"></path>
                <path d="M167.668161,84.0358744 L167.668161,84.0358744 L167.668161,84.0358744 L167.668161,84.0358744 L167.668161,84.0358744 L167.668161,84.0358744 L167.623318,73.632287 L171.569507,73.632287 L171.569507,74.9327354 L169.013453,74.9327354 L169.013453,78.9237668 L171.659193,78.9237668 L171.659193,80.2242152 L169.013453,80.2242152 L169.013453,84.0358744 L167.668161,84.0358744 L167.668161,84.0358744 L167.668161,84.0358744 Z" id="Shape" sketch:type="MSShapeGroup"></path>
                <path d="M176.32287,84.0358744 L176.32287,84.0358744 L176.32287,84.0358744 L176.32287,84.0358744 L176.32287,84.0358744 L176.32287,84.0358744 L176.278027,73.632287 L180.224215,73.632287 L180.224215,74.9327354 L177.668161,74.9327354 L177.668161,78.9237668 L180.179372,78.9237668 L180.179372,80.2242152 L177.668161,80.2242152 L177.668161,82.735426 L180.224215,82.735426 L180.224215,84.0358744 L176.32287,84.0358744 L176.32287,84.0358744 L176.32287,84.0358744 Z" id="Shape" sketch:type="MSShapeGroup"></path>
                <path d="M184.663677,84.0358744 L184.663677,84.0358744 L184.663677,84.0358744 L184.663677,84.0358744 L184.663677,84.0358744 L184.663677,84.0358744 L184.618834,73.632287 L188.565022,73.632287 L188.565022,74.9327354 L186.008969,74.9327354 L186.008969,78.9237668 L188.520179,78.9237668 L188.520179,80.2242152 L186.008969,80.2242152 L186.008969,82.735426 L188.565022,82.735426 L188.565022,84.0358744 L184.663677,84.0358744 L184.663677,84.0358744 L184.663677,84.0358744 Z" id="Shape" sketch:type="MSShapeGroup"></path>
                <path d="M98.7443946,83.9013453 L97.8923767,81.6143498 L94.7085202,81.6143498 L93.8565022,83.9013453 L92.6008969,83.9013453 L96.2780269,73.9013453 L99.955157,83.9013453 L98.7443946,83.9013453 L98.7443946,83.9013453 L98.7443946,83.9013453 Z M94.6188341,81.6143498 L94.6188341,81.4798206 L94.6188341,81.6143498 L94.6188341,81.6143498 L94.6188341,81.6143498 Z M95.2017937,80.3139013 L97.4439462,80.3139013 L96.32287,77.1300448 L95.2017937,80.3139013 L95.2017937,80.3139013 L95.2017937,80.3139013 Z" id="Shape" sketch:type="MSShapeGroup"></path>
                <path d="M156.188341,78.7892377 C156.188341,81.7488789 153.811659,84.1255605 150.852018,84.1255605 C147.892377,84.1255605 145.515695,81.7488789 145.515695,78.7892377 C145.515695,75.8295964 147.892377,73.4529148 150.852018,73.4529148 C153.811659,73.4529148 156.188341,75.8295964 156.188341,78.7892377 L156.188341,78.7892377 Z M146.816143,78.7892377 C146.816143,81.0313901 148.609865,82.8251121 150.852018,82.8251121 C153.09417,82.8251121 154.887892,81.0313901 154.887892,78.7892377 C154.887892,76.5470852 153.09417,74.7533632 150.852018,74.7533632 C148.609865,74.7533632 146.816143,76.5470852 146.816143,78.7892377 L146.816143,78.7892377 Z" id="Shape" sketch:type="MSShapeGroup"></path>
                <path d="M195.470852,26.1434978 C197.668161,26.1434978 199.596413,27.8026906 199.596413,30.2690583 C199.596413,32.735426 197.668161,34.3946188 195.470852,34.3946188 C193.273543,34.3946188 191.345291,32.735426 191.345291,30.2690583 C191.345291,27.8026906 193.273543,26.1434978 195.470852,26.1434978 L195.470852,26.1434978 Z M195.470852,33.5426009 C197.219731,33.5426009 198.565022,32.1076233 198.565022,30.2690583 C198.565022,28.4304933 197.219731,26.9955157 195.470852,26.9955157 C193.721973,26.9955157 192.376682,28.4304933 192.376682,30.2690583 C192.421525,32.1076233 193.721973,33.5426009 195.470852,33.5426009 L195.470852,33.5426009 Z M193.856502,27.9372197 L195.650224,27.9372197 C196.7713,27.9372197 197.35426,28.3408072 197.35426,29.2825112 C197.35426,30.1345291 196.860987,30.5381166 196.188341,30.5829596 L197.399103,32.5560538 L196.412556,32.5560538 L195.246637,30.6278027 L194.753363,30.6278027 L194.753363,32.5560538 L193.856502,32.5560538 L193.856502,27.9372197 L193.856502,27.9372197 Z M194.753363,29.8654709 L195.470852,29.8654709 C196.008969,29.8654709 196.457399,29.8206278 196.457399,29.2825112 C196.457399,28.7892377 196.008969,28.6995516 195.470852,28.6995516 L194.753363,28.6995516 L194.753363,29.8654709 L194.753363,29.8654709 Z" id="Shape" sketch:type="MSShapeGroup"></path>
            </g>
        </g>
    </g>
</svg>