<?xml version="1.0" encoding="UTF-8" standalone="no"?>
<svg width="200px" height="136px" viewBox="0 0 200 136" version="1.1" xmlns="http://www.w3.org/2000/svg" xmlns:xlink="http://www.w3.org/1999/xlink" xmlns:sketch="http://www.bohemiancoding.com/sketch/ns">
    <!-- Generator: Sketch 3.5.2 (25235) - http://www.bohemiancoding.com/sketch -->
    <title>40d-logo</title>
    <desc>Created with Sketch.</desc>
    <defs></defs>
    <g id="Page-1" stroke="none" stroke-width="1" fill="none" fill-rule="evenodd" sketch:type="MSPage">
        <g id="Desktop-Copy-11" sketch:type="MSArtboardGroup" transform="translate(-883.000000, -2496.000000)" fill="#FFFFFF">
            <g id="40d-logo" sketch:type="MSLayerGroup" transform="translate(883.000000, 2496.000000)">
                <path d="M14.8408965,114.969177 L6.56056799,114.969177 L6.56056799,102.484989 C6.56056799,101.975431 6.17839898,101.338482 5.41406096,101.338482 L1.14650703,101.338482 C0.573253513,101.338482 0,101.784346 0,102.484989 L0,114.969177 L0,114.969177 L0,120.446933 C0,120.829102 0.318474174,121.147576 0.700643183,121.147576 L14.9045913,121.147576 L14.9045913,133.1859 C14.9045913,133.695458 15.3504552,134.332407 16.0510984,134.332407 L20.3186523,134.332407 C21.0829903,134.332407 21.4651593,133.631763 21.4651593,133.1859 L21.4651593,102.484989 C21.4651593,101.720651 20.8919058,101.338482 20.3186523,101.338482 L16.0510984,101.338482 C15.5415397,101.338482 14.9045913,101.720651 14.9045913,102.484989 L14.8408965,114.969177 L14.8408965,114.969177 L14.8408965,114.969177 Z" id="Shape" sketch:type="MSShapeGroup"></path>
                <path d="M171.721275,101.083703 L145.224223,101.083703 C144.52358,101.083703 144.077716,101.656956 144.077716,102.23021 L144.077716,106.242984 C144.077716,106.943628 144.714665,107.389492 145.224223,107.325797 L155.351702,107.325797 L155.351702,133.504374 C155.351702,133.950238 155.670176,134.268712 156.11604,134.268712 L160.829458,134.268712 C161.275322,134.268712 161.593796,133.950238 161.593796,133.504374 L161.593796,107.325797 L171.721275,107.325797 C172.421918,107.325797 172.867782,106.752543 172.867782,106.17929 L172.867782,102.166515 C172.804087,101.465872 172.230833,101.083703 171.721275,101.083703 L171.721275,101.083703 Z" id="Shape" sketch:type="MSShapeGroup"></path>
                <path d="M67.8986939,101.338482 L56.6247082,101.338482 C55.924065,101.338482 55.4782011,101.911736 55.4782011,102.484989 L55.4782011,133.1859 C55.4782011,133.695458 55.924065,134.332407 56.6247082,134.332407 L67.8986939,134.332407 C78.0261727,134.332407 85.3510787,127.38967 85.3510787,117.835444 C85.3510787,108.281219 78.0261727,101.338482 67.8986939,101.338482 L67.8986939,101.338482 Z M67.8986939,128.154008 L62.102464,128.154008 L62.102464,107.453186 L67.8986939,107.453186 C74.1407877,107.453186 78.4720365,111.72074 78.4720365,117.835444 C78.4720365,124.013843 74.2044826,128.154008 67.8986939,128.154008 L67.8986939,128.154008 Z" id="Shape" sketch:type="MSShapeGroup"></path>
                <path d="M89.8734119,134.268712 L94.2683555,134.268712 C94.9689987,134.268712 95.4148626,133.631763 95.4148626,133.122205 L95.4148626,102.484989 C95.4148626,101.656956 94.45944,100.956313 93.6314072,101.593262 L89.3001584,104.778003 C88.9179894,105.032783 88.8542946,105.414952 88.8542946,105.669731 L88.8542946,133.122205 C88.7269049,133.759153 89.1727687,134.268712 89.8734119,134.268712 L89.8734119,134.268712 Z" id="Shape" sketch:type="MSShapeGroup"></path>
                <path d="M116.243074,121.46605 L123.3132,121.46605 L123.3132,126.689026 C121.33866,128.090313 118.727172,128.854651 116.051989,128.854651 C109.937285,128.854651 105.669731,124.332318 105.669731,117.835444 C105.669731,111.72074 110.00098,107.007322 115.606125,106.943628 C118.918257,106.879933 121.529745,108.02644 123.631674,109.7462 C124.077538,110.255759 124.841876,110.319454 125.351435,109.7462 C125.542519,109.555116 128.026618,106.497764 128.154008,106.306679 C128.536177,105.860815 128.536177,105.160172 128.026618,104.714308 C124.396012,101.593262 121.083881,100.637839 115.860905,100.637839 C106.306679,100.637839 98.7906888,108.15383 98.7906888,117.835444 C98.7906888,127.899228 105.860815,134.90566 115.988294,134.90566 C122.357778,134.90566 126.689026,132.294172 129.427904,130.001158 C129.746379,129.746379 129.873768,129.300515 129.873768,128.599872 L129.873768,116.497853 C129.873768,116.051989 129.555294,115.415041 128.727261,115.351346 L116.243074,115.351346 C115.478736,115.351346 115.096567,115.988294 115.096567,116.497853 L115.096567,120.192153 C115.096567,120.892796 115.54243,121.46605 116.243074,121.46605 L116.243074,121.46605 Z" id="Shape" sketch:type="MSShapeGroup"></path>
                <path d="M188.79149,114.650703 C182.549397,113.185721 181.40289,112.102909 181.40289,109.937285 C181.40289,107.89905 183.313735,106.497764 186.243697,106.497764 C189.109965,106.497764 190.89342,107.198407 194.396636,109.491421 C194.71511,109.7462 195.479448,109.809895 195.925312,109.236642 C195.925312,109.172947 198.218326,105.988205 198.345716,105.797121 C198.5368,105.542341 198.791579,104.841698 198.154631,104.268445 C194.71511,101.465872 191.02081,100.38306 186.371087,100.38306 C179.492045,100.38306 174.651237,104.523224 174.651237,110.446844 C174.651237,116.816327 178.791401,119.045646 185.988918,120.829102 C191.976232,122.230388 192.99535,123.376895 192.99535,125.41513 C192.99535,127.644449 190.957115,129.045735 187.708678,129.045735 C184.332852,129.045735 181.848753,128.281397 178.154453,125.28774 C177.517505,124.714487 176.816861,125.096656 176.562082,125.41513 C176.434692,125.606214 173.950594,128.536177 173.823204,128.663566 C173.313646,129.300515 173.63212,130.001158 173.886899,130.192242 C177.517505,133.568069 182.294617,135.224134 187.517594,135.224134 C194.969889,135.224134 199.747002,131.147665 199.747002,124.841876 C199.747002,118.217613 194.460331,116.051989 188.79149,114.650703 L188.79149,114.650703 Z" id="Shape" sketch:type="MSShapeGroup"></path>
                <path d="M26.6881358,134.268712 L50.127835,134.268712 C50.7010885,134.268712 51.274342,133.822848 51.274342,133.122205 L51.274342,102.3576 C51.274342,101.656956 50.7010885,101.211093 50.127835,101.211093 L26.6881358,101.211093 C25.9874926,101.211093 25.5416288,101.784346 25.5416288,102.3576 L25.5416288,133.122205 C25.5416288,133.886543 26.1148823,134.268712 26.6881358,134.268712 L26.6881358,134.268712 Z M32.1658916,108.090135 L44.6500792,108.090135 L44.6500792,110.319454 L32.1658916,117.580665 L32.1658916,108.090135 L32.1658916,108.090135 Z M32.1658916,124.969266 L44.6500792,117.708055 L44.6500792,128.154008 L32.1658916,128.154008 L32.1658916,124.969266 L32.1658916,124.969266 Z" id="Shape" sketch:type="MSShapeGroup"></path>
                <path d="M135.415219,134.268712 L139.810162,134.268712 C140.510806,134.268712 140.956669,133.631763 140.956669,133.122205 L140.956669,102.484989 C140.956669,101.656956 140.001247,100.956313 139.173214,101.593262 L134.841965,104.778003 C134.459796,105.032783 134.396101,105.414952 134.396101,105.669731 L134.396101,133.122205 C134.332407,133.759153 134.77827,134.268712 135.415219,134.268712 L135.415219,134.268712 Z" id="Shape" sketch:type="MSShapeGroup"></path>
                <path d="M128.345092,0.318474174 L69.42737,0.318474174 C62.3572433,0.318474174 56.6247082,6.05100931 56.6247082,13.1848308 L56.6247082,72.102553 C56.6247082,79.1726797 62.3572433,84.9689097 69.4910648,84.9689097 L128.408787,84.9689097 C135.478914,84.9689097 141.275144,79.2363745 141.275144,72.102553 L141.275144,13.1848308 C141.211449,6.05100931 135.478914,0.318474174 128.345092,0.318474174 L128.345092,0.318474174 Z M87.3256185,61.2107363 L82.0389472,64.2043935 C81.9115576,64.2680883 81.8478627,64.2680883 81.7204731,64.2680883 L81.5293886,64.2680883 C81.3383041,64.2043935 81.2109144,64.0770038 81.1472196,63.9496142 L69.1725906,42.7392342 C69.0452009,42.5481497 69.0452009,42.2933703 69.1725906,42.038591 L81.1472196,20.828211 C81.2109144,20.7008213 81.4019989,20.5734316 81.5293886,20.5097368 C81.7204731,20.446042 81.9115576,20.5097368 82.0389472,20.5734316 L87.3256185,23.5670889 C87.6440927,23.7581734 87.7714824,24.2040372 87.5803979,24.5225114 L77.516614,42.3570652 L87.5803979,60.1916189 C87.7714824,60.5737879 87.7077875,61.0196518 87.3256185,61.2107363 L87.3256185,61.2107363 Z M88.4721256,52.8667129 C88.2173462,52.8667129 88.0262617,52.7393232 87.8988721,52.5482387 L84.84152,47.2615674 C84.7778251,47.1341778 84.7141303,46.9430933 84.7778251,46.7520088 C84.84152,46.5609243 84.9689097,46.4335346 85.0962993,46.3061449 L109.937285,31.8474174 C110.064675,31.7837226 110.255759,31.7200277 110.446844,31.7837226 C110.637928,31.8474174 110.765318,31.9748071 110.892707,32.1021967 L113.950059,37.388868 C114.141144,37.7073422 114.013754,38.1532061 113.69528,38.3442906 L88.8542946,52.8030181 C88.7269049,52.8030181 88.5995152,52.8667129 88.4721256,52.8667129 L88.4721256,52.8667129 Z M129.810073,42.8666238 L117.835444,64.0770038 C117.77175,64.2043935 117.580665,64.3317832 117.453275,64.395478 L117.262191,64.395478 C117.134801,64.395478 117.007412,64.395478 116.943717,64.3317832 L111.593351,61.3381259 C111.465961,61.2744311 111.338571,61.0833466 111.274876,60.9559569 C111.211182,60.7648724 111.274876,60.5737879 111.338571,60.4463982 L121.402355,42.6118445 L111.338571,24.7772907 C111.274876,24.5862062 111.211182,24.4588166 111.274876,24.2677321 C111.338571,24.0766476 111.465961,23.9492579 111.593351,23.8855631 L116.943717,20.8919058 C117.262191,20.7008213 117.708055,20.828211 117.899139,21.1466852 L129.873768,42.3570652 C129.937463,42.42076 129.937463,42.6755393 129.810073,42.8666238 L129.810073,42.8666238 Z" id="Shape" sketch:type="MSShapeGroup"></path>
            </g>
        </g>
    </g>
</svg>