<?xml version="1.0" encoding="UTF-8" standalone="no"?>
<svg width="300px" height="77px" viewBox="0 0 300 77" version="1.1" xmlns="http://www.w3.org/2000/svg" xmlns:xlink="http://www.w3.org/1999/xlink" xmlns:sketch="http://www.bohemiancoding.com/sketch/ns">
    <!-- Generator: Sketch 3.5.2 (25235) - http://www.bohemiancoding.com/sketch -->
    <title>crema-logo</title>
    <desc>Created with Sketch.</desc>
    <defs></defs>
    <g id="Page-1" stroke="none" stroke-width="1" fill="none" fill-rule="evenodd" sketch:type="MSPage">
        <g id="Desktop-Copy-11" sketch:type="MSArtboardGroup" transform="translate(-913.000000, -2734.000000)" fill="#FFFFFF">
            <g id="crema-logo" sketch:type="MSLayerGroup" transform="translate(913.000000, 2734.000000)">
                <path d="M56.4809384,73.4762712 C51.686217,75.6514124 46.1876833,76.6954802 39.941349,76.6954802 C34.2668622,76.6954802 29.0322581,75.7819209 24.1935484,73.9112994 C19.398827,72.040678 15.2199413,69.4305085 11.6568915,66.0372881 C8.13782991,62.6440678 5.36656891,58.5983051 3.3431085,53.8564972 C1.31964809,49.1146893 0.307917889,43.9378531 0.307917889,38.2389831 C0.307917889,32.4096045 1.31964809,27.1457627 3.38709677,22.4039548 C5.41055718,17.6621469 8.26979472,13.659887 11.8768328,10.3101695 C15.483871,7.0039548 19.7067449,4.43728814 24.5454545,2.65367232 C29.3841642,0.870056497 34.6187683,0 40.2492669,0 C45.4398827,0 50.542522,0.913559322 55.5571848,2.74067797 C60.5718475,4.56779661 64.6627566,7.22146893 67.7859238,10.7016949 L55.7331378,22.6214689 C54.0615836,20.359322 51.9061584,18.6627119 49.1788856,17.5751412 C46.4956012,16.4875706 43.7243402,15.9220339 40.8651026,15.9220339 C37.7419355,15.9220339 34.8826979,16.4875706 32.28739,17.6186441 C29.6920821,18.7497175 27.4486804,20.3158192 25.601173,22.2734463 C23.7096774,24.2745763 22.2580645,26.6237288 21.2463343,29.320904 C20.1906158,32.0180791 19.7067449,34.9762712 19.7067449,38.1954802 C19.7067449,41.5016949 20.2346041,44.5033898 21.2463343,47.2440678 C22.3020528,49.9847458 23.7096774,52.3338983 25.5571848,54.2915254 C27.4046921,56.2491525 29.6041056,57.7717514 32.1554252,58.859322 C34.7067449,59.9468927 37.5219941,60.5124294 40.5571848,60.5124294 C44.0762463,60.5124294 47.1554252,59.8163842 49.7947214,58.4677966 C52.4340176,57.119209 54.5454545,55.3355932 56.1290323,53.1169492 L68.4897361,64.6451977 C65.2785924,68.4299435 61.2756598,71.3446328 56.4809384,73.4762712 L56.4809384,73.4762712 Z" id="Shape" sketch:type="MSShapeGroup"></path>
                <path d="M105.307918,37.4559322 C104.560117,37.2384181 103.812317,37.1079096 103.064516,37.0644068 C102.316716,36.9774011 101.612903,36.9774011 100.953079,36.9774011 C98.6656891,36.9774011 96.7302053,37.3689266 95.1906158,38.1954802 C93.6510264,39.0220339 92.3753666,40.0225989 91.4516129,41.1536723 C90.5278592,42.3282486 89.8240469,43.5898305 89.4281525,44.9384181 C89.0322581,46.2870056 88.8123167,47.5050847 88.8123167,48.5056497 L88.8123167,74.7378531 L71.7888563,74.7378531 L71.7888563,23.6655367 L88.1964809,23.6655367 L88.1964809,31.0610169 L88.4164223,31.0610169 C89.7360704,28.4508475 91.5835777,26.319209 94.0469208,24.6661017 C96.4662757,23.0129944 99.2815249,22.1864407 102.44868,22.1864407 C103.152493,22.1864407 103.812317,22.2299435 104.472141,22.2734463 C105.131965,22.360452 105.659824,22.4474576 106.099707,22.5779661 L105.307918,37.4559322 L105.307918,37.4559322 Z" id="Shape" sketch:type="MSShapeGroup"></path>
                <path d="M159.589443,49.8107345 L159.589443,51.8553672 C159.589443,52.5514124 159.545455,53.2039548 159.501466,53.8129944 L121.979472,53.8129944 C122.111437,55.2485876 122.55132,56.5536723 123.29912,57.7282486 C124.046921,58.9028249 124.970674,59.9033898 126.11437,60.7734463 C127.258065,61.6435028 128.533724,62.2960452 129.941349,62.7745763 C131.348974,63.2531073 132.844575,63.5141243 134.340176,63.5141243 C137.02346,63.5141243 139.31085,63.0355932 141.202346,62.0350282 C143.093842,61.0344633 144.589443,59.7728814 145.777126,58.1632768 L157.609971,65.5587571 C155.190616,69.0389831 151.979472,71.7361582 147.97654,73.6067797 C143.973607,75.4774011 139.354839,76.4344633 134.120235,76.4344633 C130.249267,76.4344633 126.554252,75.8254237 123.123167,74.6508475 C119.648094,73.4327684 116.612903,71.6926554 114.017595,69.4305085 C111.422287,67.1248588 109.354839,64.2971751 107.903226,60.9474576 C106.407625,57.5977401 105.659824,53.7694915 105.659824,49.419209 C105.659824,45.2429379 106.407625,41.4581921 107.859238,38.0649718 C109.31085,34.6717514 111.290323,31.800565 113.797654,29.4514124 C116.304985,27.1022599 119.252199,25.2751412 122.639296,23.9700565 C126.026393,22.6649718 129.721408,22.0124294 133.636364,22.0124294 C137.463343,22.0124294 140.938416,22.6649718 144.14956,23.9265537 C147.316716,25.1881356 150.087977,27.0152542 152.375367,29.4079096 C154.662757,31.800565 156.422287,34.7152542 157.741935,38.1519774 C158.929619,41.5016949 159.589443,45.4169492 159.589443,49.8107345 L159.589443,49.8107345 Z M143.88563,43.3288136 C143.88563,40.6751412 143.049853,38.3694915 141.334311,36.4553672 C139.618768,34.5412429 137.111437,33.5841808 133.680352,33.5841808 C132.008798,33.5841808 130.513196,33.8451977 129.105572,34.3672316 C127.697947,34.8892655 126.510264,35.5853107 125.454545,36.4553672 C124.398827,37.3254237 123.56305,38.4129944 122.947214,39.5875706 C122.331378,40.8056497 121.979472,42.0237288 121.891496,43.3288136 L143.88563,43.3288136 L143.88563,43.3288136 Z" id="Shape" sketch:type="MSShapeGroup"></path>
                <path d="M230.014663,74.7813559 L230.014663,46.8090395 C230.014663,45.3734463 229.926686,43.9813559 229.706745,42.6327684 C229.486804,41.2841808 229.134897,40.1531073 228.56305,39.1960452 C227.991202,38.2389831 227.243402,37.4559322 226.319648,36.8903955 C225.395894,36.3248588 224.164223,36.020339 222.624633,36.020339 C221.173021,36.020339 219.897361,36.3248588 218.841642,36.9338983 C217.785924,37.5429379 216.86217,38.3694915 216.158358,39.4135593 C215.410557,40.4576271 214.882698,41.6322034 214.530792,42.980791 C214.178886,44.3293785 214.002933,45.7214689 214.002933,47.1570621 L214.002933,74.7813559 L196.979472,74.7813559 L196.979472,45.5909605 C196.979472,42.6327684 196.407625,40.3271186 195.219941,38.5870056 C194.032258,36.8903955 192.184751,36.020339 189.589443,36.020339 C186.906158,36.020339 184.794721,37.0644068 183.29912,39.1960452 C181.803519,41.3276836 181.055718,43.9378531 181.055718,47.0265537 L181.055718,74.7813559 L163.900293,74.7813559 L163.900293,23.6220339 L180.439883,23.6220339 L180.439883,30.7129944 L180.659824,30.7129944 C181.27566,29.6254237 182.067449,28.5378531 182.991202,27.5372881 C183.914956,26.4932203 185.058651,25.6231638 186.378299,24.7966102 C187.697947,24.0135593 189.14956,23.3610169 190.777126,22.8824859 C192.404692,22.4039548 194.208211,22.1429379 196.143695,22.1429379 C199.882698,22.1429379 203.049853,22.8824859 205.645161,24.4050847 C208.240469,25.9276836 210.26393,28.059322 211.715543,30.8870056 C213.431085,28.2333333 215.674487,26.1016949 218.357771,24.5355932 C221.041056,22.9694915 224.340176,22.1864407 228.211144,22.1864407 C231.730205,22.1864407 234.721408,22.8389831 237.096774,24.100565 C239.472141,25.3621469 241.407625,27.0152542 242.859238,29.0163842 C244.31085,31.0175141 245.366569,33.279661 246.026393,35.8028249 C246.686217,38.3259887 246.994135,40.7621469 246.994135,43.1548023 L246.994135,74.8248588 L230.014663,74.8248588 L230.014663,74.7813559 Z" id="Shape" sketch:type="MSShapeGroup"></path>
                <path d="M253.020528,30.5824859 C256.055718,27.7112994 259.618768,25.5361582 263.665689,24.100565 C267.71261,22.6649718 271.847507,21.9254237 276.070381,21.9254237 C280.42522,21.9254237 284.120235,22.4474576 287.155425,23.5350282 C290.190616,24.579096 292.609971,26.2322034 294.501466,28.4508475 C296.392962,30.6694915 297.756598,33.4971751 298.592375,36.8903955 C299.472141,40.2836158 299.912023,44.2858757 299.912023,48.9841808 L299.912023,74.7813559 L284.340176,74.7813559 L284.340176,69.3435028 L284.032258,69.3435028 C282.71261,71.4751412 280.733138,73.1282486 278.049853,74.259322 C275.366569,75.4338983 272.507331,75.999435 269.384164,75.999435 C267.316716,75.999435 265.16129,75.7384181 262.961877,75.1728814 C260.762463,74.6073446 258.739003,73.7372881 256.891496,72.519209 C255.043988,71.3011299 253.548387,69.6480226 252.360704,67.6033898 C251.173021,65.5587571 250.601173,63.0355932 250.601173,59.9903955 C250.601173,56.2926554 251.612903,53.2909605 253.680352,51.0288136 C255.703812,48.7666667 258.343109,47.0265537 261.59824,45.8084746 C264.809384,44.5903955 268.416422,43.7638418 272.331378,43.3288136 C276.290323,42.9372881 280.117302,42.719774 283.856305,42.719774 L283.856305,41.8932203 C283.856305,39.3700565 282.97654,37.499435 281.173021,36.2813559 C279.369501,35.0632768 277.170088,34.4977401 274.530792,34.4977401 C275.806452,34.4977401 269.780059,35.019774 267.536657,36.020339 C265.293255,37.0644068 263.357771,38.2824859 261.774194,39.7180791 L253.020528,30.5824859 L253.020528,30.5824859 Z M284.296188,52.4644068 L282.096774,52.4644068 C280.205279,52.4644068 278.357771,52.5514124 276.422287,52.7254237 C274.530792,52.899435 272.815249,53.2039548 271.319648,53.6824859 C269.824047,54.1610169 268.592375,54.8570621 267.624633,55.7706215 C266.656891,56.6841808 266.173021,57.9022599 266.173021,59.4248588 C266.173021,60.3819209 266.392962,61.2084746 266.832845,61.9045198 C267.272727,62.600565 267.844575,63.1225989 268.548387,63.5576271 C269.252199,63.9491525 270.043988,64.2536723 270.923754,64.4276836 C271.803519,64.6016949 272.683284,64.6887006 273.519062,64.6887006 C276.994135,64.6887006 279.633431,63.7316384 281.480938,61.8610169 C283.328446,59.9903955 284.252199,57.4237288 284.252199,54.2045198 L284.252199,52.4644068 L284.296188,52.4644068 Z" id="Shape" sketch:type="MSShapeGroup"></path>
            </g>
        </g>
    </g>
</svg>