<?xml version="1.0" encoding="UTF-8" standalone="no"?>
<svg width="200px" height="58px" viewBox="0 0 200 58" version="1.1" xmlns="http://www.w3.org/2000/svg" xmlns:xlink="http://www.w3.org/1999/xlink" xmlns:sketch="http://www.bohemiancoding.com/sketch/ns">
    <!-- Generator: Sketch 3.5.2 (25235) - http://www.bohemiancoding.com/sketch -->
    <title>flywheel-logo</title>
    <desc>Created with Sketch.</desc>
    <defs></defs>
    <g id="Page-1" stroke="none" stroke-width="1" fill="none" fill-rule="evenodd" sketch:type="MSPage">
        <g id="Desktop-Copy-11" sketch:type="MSArtboardGroup" transform="translate(-274.000000, -2603.000000)" fill="#FFFFFF">
            <g id="flywheel-logo" sketch:type="MSLayerGroup" transform="translate(274.000000, 2603.000000)">
                <path d="M28.9425949,5.40300855 C16.0123463,5.40300855 5.53018823,15.8676735 5.53018823,28.7766467 C5.53018823,41.6865655 16.0123463,52.1502849 28.9425949,52.1502849 C41.8714251,52.1502849 52.3550016,41.6865655 52.3550016,28.7766467 C52.3550016,15.8676735 41.8714251,5.40300855 28.9425949,5.40300855 L28.9425949,5.40300855 Z M31.2020434,6.37789512 C31.3741379,6.35520135 31.5452867,6.32777971 31.7140716,6.29799413 C31.8228126,6.29090233 31.932972,6.29090233 32.0412402,6.29799413 L32.1343792,6.31075938 C35.9185654,6.86202889 39.3978041,8.35745381 42.3295556,10.548821 C40.9140317,10.5086342 33.8695071,12.6820355 34.2406448,21.7770368 C34.3077805,23.4213896 33.314928,24.5915372 32.099393,25.4033123 C31.9055503,25.2165614 31.695633,25.0586506 31.4790966,24.9149234 C32.5220644,22.6266349 32.8397772,19.651387 29.6825064,17.1389975 C24.9886782,13.4030355 27.8589674,7.15893905 31.2020434,6.37789512 L31.2020434,6.37789512 Z M31.2805261,28.5898959 C31.2805261,29.9174815 30.2049359,30.9925989 28.8778231,30.9925989 L28.7794834,30.9873982 C28.2494893,30.9325549 27.73557,30.7023077 27.3299188,30.2980749 C26.3914369,29.3591202 26.3914369,27.8372192 27.3289733,26.8987372 C27.8244539,26.4037293 28.4830461,26.1720637 29.1317097,26.1994854 C30.3396802,26.3261923 31.2805261,27.3483575 31.2805261,28.5898959 L31.2805261,28.5898959 Z M15.453985,10.6325043 C18.495423,8.33192332 21.9912093,6.90883479 25.5952637,6.35661971 C24.6799483,7.04783414 20.8678677,13.7481699 27.7393523,20.0811503 C28.9492139,21.1964545 29.0749752,22.7263929 28.789412,24.15941 C28.6144808,24.1627195 28.4442775,24.1773759 28.2740742,24.2000696 C27.4003641,21.8309345 25.5229273,19.4745647 21.4914736,19.9326952 C15.0653542,20.6626781 12.7903037,13.1117988 15.453985,10.6325043 L15.453985,10.6325043 Z M11.0003325,15.1060139 C10.6906571,15.8322145 12.5515463,23.782126 22.19829,23.387349 C23.8048198,23.3211588 24.9565287,24.2686237 25.7668854,25.4453903 C25.5843896,25.6255221 25.412768,25.816528 25.2643129,26.0264454 C22.9665686,24.9588926 19.9586985,24.6043024 17.4207785,27.7923044 C13.6720512,32.503153 7.39391414,29.594568 6.65022036,26.2363628 C7.06201774,22.2881195 8.50969119,18.4282873 11.0003325,15.1060139 L11.0003325,15.1060139 Z M11.0556486,42.1626619 C8.76074103,39.1250061 7.33859807,35.6344205 6.78732856,32.0341484 C7.99293512,33.1461431 14.3429358,36.2679549 20.3629313,29.7349857 C21.4796539,28.5227602 23.012429,28.3998356 24.44781,28.6853988 C24.4534834,28.9307752 24.4846873,29.1676415 24.5286565,29.4007254 C22.1973444,30.293347 19.9189844,32.1722021 20.3700231,36.1417208 C21.1009516,42.5801327 13.5207594,44.8504553 11.0556486,42.1626619 L11.0556486,42.1626619 Z M25.9328336,50.8869983 C22.2450959,50.379698 18.6594801,48.9655924 15.5461784,46.634753 C16.2922362,46.9363911 24.2175628,45.0679373 23.8232585,35.4353772 C23.7580139,33.8241195 24.7106795,32.6695739 25.8907555,31.8601628 C26.027391,31.984033 26.1687542,32.1012841 26.3195733,32.2081339 C25.2543844,34.5049326 24.9035765,37.5113845 28.0887418,40.0464678 C33.0790074,44.0183504 29.5208133,50.8245904 25.9328336,50.8869983 L25.9328336,50.8869983 Z M43.0311714,46.0858475 C39.950492,48.5821622 36.2027104,50.2870317 32.097029,50.8775426 C32.8378861,50.5626665 37.1218081,43.6382297 30.0314231,37.1052605 C28.8201431,35.9880651 28.6972185,34.4562356 28.9813634,33.0213274 C29.2461241,33.0241641 29.5113575,33.0109261 29.7732815,32.9664841 C30.6403726,35.3502756 32.5173366,37.7392677 36.5738481,37.2783005 C42.6179556,36.591814 44.9880363,43.2311602 43.0311714,46.0858475 L43.0311714,46.0858475 Z M47.0943019,41.802871 C47.0290573,40.1703379 44.7483334,33.4605464 35.8665589,33.8245923 C34.2132231,33.8922008 33.0397661,32.8884743 32.2265726,31.6649018 C32.3665175,31.5183379 32.4922789,31.3637366 32.6081116,31.2039346 C34.8921451,32.23461 37.8489543,32.5343569 40.3504697,29.392688 C44.3190429,24.4062047 51.127174,27.9568342 51.1985649,31.5419772 C50.6993019,35.3408199 49.2464278,38.8422795 47.0943019,41.802871 L47.0943019,41.802871 Z M46.5666717,14.6729411 C48.9556639,17.7020867 50.5839419,21.3572021 51.1621603,25.3489418 C50.6576967,24.5163641 43.8424737,20.4674172 37.4083169,27.4495339 C36.3246894,28.6253549 34.8500671,28.7757011 33.4520362,28.5227602 C33.4491995,28.3029142 33.4354887,28.0830683 33.3986113,27.8646408 C35.7776749,26.9951857 38.1553202,25.1182218 37.6952986,21.0706932 C37.0177949,15.1093234 43.4632986,12.7241135 46.3794481,14.5353601 C46.4413832,14.5826388 46.5042639,14.6266079 46.5666717,14.6729411 L46.5666717,14.6729411 Z" id="Shape" sketch:type="MSShapeGroup"></path>
                <path d="M28.9425949,57.4762292 C13.117945,57.4762292 0.24301246,44.6017694 0.24301246,28.7761739 C0.24301246,12.9505784 13.117945,0.0765914758 28.9425949,0.0765914758 C44.7681904,0.0765914758 57.6431229,12.9510512 57.6431229,28.7766467 C57.6431229,44.6022422 44.7681904,57.4762292 28.9425949,57.4762292 L28.9425949,57.4762292 Z M28.9425949,3.74021707 C15.1376906,3.74021707 3.90616527,14.9712696 3.90616527,28.7766467 C3.90616527,42.581551 15.1376906,53.8130764 28.9425949,53.8130764 C42.7484448,53.8130764 53.9794973,42.581551 53.9794973,28.7766467 C53.9794973,14.9712696 42.7484448,3.74021707 28.9425949,3.74021707 L28.9425949,3.74021707 Z" id="Shape" sketch:type="MSShapeGroup"></path>
                <path d="M56.6663452,11.0807063 C56.6663452,11.0807063 53.962477,2.41263149 45.5421425,0.059098361 C45.5421425,0.059098361 52.9299104,4.26973838 56.6663452,11.0807063 L56.6663452,11.0807063 Z" id="Shape" sketch:type="MSShapeGroup"></path>
                <path d="M0.873237382,46.0286402 C0.873237382,46.0286402 3.57710559,54.6971878 11.9974401,57.050721 C11.9974401,57.0511937 4.60967216,52.8405537 0.873237382,46.0286402 L0.873237382,46.0286402 Z" id="Shape" sketch:type="MSShapeGroup"></path>
                <path d="M67.90118,13.0389896 L79.0395663,13.0389896 L79.0395663,16.5645614 L72.0683237,16.5645614 L72.0683237,26.3408487 L78.3587532,26.3408487 L78.3587532,29.8668933 L72.0683237,29.8668933 L72.0683237,43.9691806 L67.90118,43.9691806 L67.90118,13.0389896 Z" id="Shape" sketch:type="MSShapeGroup"></path>
                <path d="M82.6039067,13.0389896 L86.7710503,13.0389896 L86.7710503,40.4426632 L93.5820182,40.4426632 L93.5820182,43.9691806 L82.6039067,43.9691806 L82.6039067,13.0389896 Z" id="Shape" sketch:type="MSShapeGroup"></path>
                <path d="M92.5589074,13.0389896 L96.9652812,13.0389896 L99.0086661,19.7700565 C99.0758018,19.9695726 99.1415192,20.1908368 99.2096005,20.4305398 C99.2767363,20.6707155 99.3561645,20.9321667 99.4497763,21.2125293 C100.21049,23.6431267 100.731974,25.6865116 101.012337,27.3417385 C101.252513,25.6865116 101.452502,24.5310205 101.614195,23.8762106 L102.254348,21.1118257 L102.494524,20.0296165 L104.216886,13.038044 L108.565107,13.038044 L103.176283,30.6673215 L103.176283,43.9691806 L99.0091389,43.9691806 L99.0091389,30.6673215 L92.5589074,13.0389896 L92.5589074,13.0389896 Z" id="Shape" sketch:type="MSShapeGroup"></path>
                <path d="M111.321455,13.0389896 L115.348181,13.0389896 L117.450191,27.4022552 L117.792016,29.5260139 C117.951818,30.6748861 118.073797,31.7235274 118.152753,32.6709923 L118.372599,35.2954323 C118.385364,35.3620953 118.400493,35.4821831 118.413258,35.6556959 C118.426969,35.8301543 118.446826,36.0500002 118.473302,36.316652 L118.573533,35.3148166 C118.733335,33.5659779 118.903538,31.9561385 119.084143,30.4871897 C119.264275,29.0182408 119.461427,27.6627608 119.674654,26.4202769 L121.897698,13.0385168 L125.103666,13.0385168 L127.187237,26.0396834 C127.494549,27.9625077 127.751745,29.7463326 127.957407,31.3883215 C128.165433,33.0312559 128.335164,34.6009084 128.46849,36.0958605 C128.602289,34.5200618 128.75358,32.9967425 128.919529,31.5287392 C129.086422,30.0607359 129.263245,28.6168447 129.449523,27.2017936 L129.751161,25.1390244 L131.533567,13.0389896 L135.520106,13.0389896 L130.05138,43.9691806 L126.806171,43.9691806 L124.623314,30.6072775 C124.609603,30.5547982 124.575563,30.3330611 124.52261,29.9458487 C124.469658,29.559109 124.388339,29.0054756 124.281962,28.28353 L123.860709,25.1985955 C123.834706,24.9584198 123.790736,24.5976834 123.731638,24.1173319 C123.670176,23.6360349 123.607768,23.0285037 123.540159,22.2942657 L123.440874,21.0120677 C123.41298,21.3189063 123.387449,21.5865037 123.3605,21.8134414 C123.333551,22.0403791 123.313222,22.2276027 123.299984,22.3741667 C123.233321,23.2559142 123.176586,23.9400368 123.130253,24.4274801 C123.08392,24.915869 123.054134,25.2118336 123.040424,25.319629 L122.619643,28.28353 C122.526504,28.9648159 122.452277,29.4995379 122.399325,29.8862775 C122.346372,30.27349 122.304767,30.5141385 122.279237,30.6072775 L120.016479,43.9691806 L116.670093,43.9691806 L111.321455,13.0389896 L111.321455,13.0389896 Z" id="Shape" sketch:type="MSShapeGroup"></path>
                <path d="M139.289636,13.0389896 L143.457253,13.0389896 L143.457253,25.1390244 L149.56755,25.1390244 L149.56755,13.0389896 L153.733748,13.0389896 L153.733748,43.9691806 L149.56755,43.9691806 L149.56755,28.6636506 L143.457253,28.6636506 L143.457253,43.9691806 L139.289636,43.9691806 L139.289636,13.0389896 Z" id="Shape" sketch:type="MSShapeGroup"></path>
                <path d="M158.135867,13.0389896 L169.213264,13.0389896 L169.213264,16.5645614 L162.303011,16.5645614 L162.303011,26.3602329 L168.433165,26.3602329 L168.433165,29.8862775 L162.303011,29.8862775 L162.303011,40.4426632 L169.213264,40.4426632 L169.213264,43.9691806 L158.135867,43.9691806 L158.135867,13.0389896 Z" id="Shape" sketch:type="MSShapeGroup"></path>
                <path d="M173.399319,13.0389896 L184.476716,13.0389896 L184.476716,16.5645614 L177.565517,16.5645614 L177.565517,26.3602329 L183.696145,26.3602329 L183.696145,29.8862775 L177.565517,29.8862775 L177.565517,40.4426632 L184.476716,40.4426632 L184.476716,43.9691806 L173.399319,43.9691806 L173.399319,13.0389896 Z" id="Shape" sketch:type="MSShapeGroup"></path>
                <path d="M188.662298,13.0389896 L192.828496,13.0389896 L192.828496,40.4426632 L199.639937,40.4426632 L199.639937,43.9691806 L188.662298,43.9691806 L188.662298,13.0389896 Z" id="Shape" sketch:type="MSShapeGroup"></path>
            </g>
        </g>
    </g>
</svg>