<?xml version="1.0" encoding="UTF-8" standalone="no"?>
<svg width="300px" height="55px" viewBox="0 0 300 55" version="1.1" xmlns="http://www.w3.org/2000/svg" xmlns:xlink="http://www.w3.org/1999/xlink" xmlns:sketch="http://www.bohemiancoding.com/sketch/ns">
    <!-- Generator: Sketch 3.5.2 (25235) - http://www.bohemiancoding.com/sketch -->
    <title>sprintaccel-logo</title>
    <desc>Created with Sketch.</desc>
    <defs></defs>
    <g id="Page-1" stroke="none" stroke-width="1" fill="none" fill-rule="evenodd" sketch:type="MSPage">
        <g id="Desktop-Copy-11" sketch:type="MSArtboardGroup" transform="translate(-281.000000, -2752.000000)" fill="#FFFFFF">
            <g id="sprintaccel-logo" sketch:type="MSLayerGroup" transform="translate(281.000000, 2752.000000)">
                <path d="M128.63691,15.9875536 L134.259657,0.0643776824 L11.5686695,0.0643776824 L0.478969957,38.111588 L108.11073,38.111588 L101.781116,54.0321888 L291.334764,54.0321888 L299.484979,15.9875536 L128.639485,15.9875536 L128.63691,15.9875536 Z M29.2969957,24.6695279 C28.5321888,28.9545064 26.87897,30.9437768 21.6463519,30.9437768 C18.8317597,30.9437768 14.9150215,30.4236052 14.9150215,26.7206009 C14.9150215,25.6184549 15.2497854,24.3643777 15.5587983,23.1412017 L20.760515,23.1412017 C20.5158798,24.0579399 20.1785408,25.404721 20.1785408,25.9248927 C20.1785408,27.3321888 21.4635193,27.3321888 21.7390558,27.3321888 C22.3828326,27.3321888 22.932618,27.1480687 23.2995708,26.6587983 C23.7283262,26.1077253 24.0334764,24.6695279 24.0334764,24.0579399 C24.0334764,23.3240343 23.7283262,22.9248927 22.9030043,22.2527897 C22.4742489,21.9180258 22.2592275,21.7635193 20.8532189,20.6922747 C18.4660944,18.9193133 17.7012876,18.3360515 17.7012876,16.3171674 C17.7012876,14.6652361 18.7107296,11.6665236 19.6287554,10.4420601 C20.1798283,9.73776824 21.0669528,8.60472103 24.8922747,8.60472103 C28.7781116,8.60472103 31.37897,9.55364807 31.37897,12.6437768 C31.37897,13.5012876 31.1665236,14.4180258 30.8291845,15.8266094 L25.872103,15.8266094 C26.0240343,15.1828326 26.3304721,13.9905579 26.3304721,13.5012876 C26.3304721,12.4918455 25.4716738,12.2781116 24.9527897,12.2781116 C23.9742489,12.2781116 23.604721,12.827897 23.5133047,13.0120172 C23.0845494,13.6223176 22.8695279,14.9690987 22.8695279,15.3978541 C22.8695279,16.3763948 23.206867,16.62103 25.0120172,17.9665236 C28.9596567,20.9343348 29.448927,21.576824 29.448927,23.3819742 C29.448927,23.8145923 29.388412,24.2446352 29.2969957,24.6695279 L29.2969957,24.6695279 Z M41.627897,21.9476395 L37.6493562,21.9476395 L35.6613734,30.576824 L30.4287554,30.576824 L35.4167382,8.97424893 L43.5257511,8.97424893 C44.8107296,8.97424893 48.1158798,9.00386266 48.1158798,12.3991416 C48.1158798,12.8600858 48.0540773,13.5321888 47.9008584,14.1450644 L47.1978541,17.2969957 C46.4021459,20.8158798 45.3,21.9476395 41.627897,21.9476395 L41.627897,21.9476395 Z M62.9562232,16.9905579 C62.1296137,18.7648069 60.7223176,19.2566524 59.1012876,19.5012876 C59.927897,19.6532189 61.97897,20.051073 61.97897,22.0094421 C61.97897,22.4381974 61.8888412,22.8656652 61.7652361,23.5699571 L61.0905579,26.844206 C60.9978541,27.3025751 60.6914163,28.8321888 60.6914163,29.2004292 C60.6914163,30.1480687 61.3351931,30.3618026 61.6416309,30.4841202 L61.6416309,30.6682403 L57.1120172,30.5137339 C56.1939914,30.4841202 55.5515021,30.1467811 55.5515021,29.1682403 C55.5515021,29.0137339 55.5515021,28.8012876 55.7652361,27.8214592 L56.5609442,23.9652361 C56.7128755,23.1991416 56.7746781,22.9248927 56.7746781,22.6493562 C56.7746781,21.5781116 55.9184549,21.4866953 55.2450644,21.4866953 L53.7424893,21.4866953 L51.6309013,30.5742489 L46.3686695,30.5742489 L51.3566524,8.97167382 L57.660515,8.97167382 C60.72103,8.97167382 63.9643777,8.97167382 63.9643777,12.4905579 C63.9643777,13.5914163 63.504721,15.8562232 62.9536481,16.9879828 L62.9562232,16.9905579 Z M64.2412017,30.576824 L69.2291845,8.97424893 L74.4618026,8.97424893 L69.4751073,30.576824 L64.2424893,30.576824 L64.2412017,30.576824 Z M87.2819742,30.576824 L82.2618026,30.576824 L81.4969957,24.3656652 C81.0682403,20.8763948 81.0077253,20.4772532 80.7321888,17.2660944 L78.1004292,30.576824 L73.2334764,30.576824 L78.2227468,8.97424893 L83.3021459,8.97424893 C84.2201717,16.0120172 84.4042918,17.5725322 84.8626609,22.3776824 C85.4420601,18.7339056 85.5965665,17.9703863 86.1785408,15.216309 C86.8519313,12.095279 86.9124464,11.7888412 87.4944206,8.97424893 L92.2969957,8.97424893 L87.2832618,30.576824 L87.2819742,30.576824 Z M106.312017,12.7055794 L102.703004,12.7055794 L98.5699571,30.576824 L93.3090129,30.576824 L97.4381974,12.7055794 L93.4892704,12.7055794 L94.3776824,8.97424893 L107.16824,8.97424893 L106.312017,12.7081545 L106.312017,12.7055794 Z M136.109871,45.6051502 L131.236481,45.6051502 L131.671674,41.0497854 L127.870815,41.0497854 L126.132618,45.6051502 L120.821459,45.6051502 L129.612876,25.1201717 L137.591845,25.1201717 L136.111159,45.6051502 L136.109871,45.6051502 Z M147.629614,28.5154506 C146.439914,28.5154506 146.208155,29.0948498 145.975107,29.7334764 L143.537768,40.2373391 C143.450215,40.5849785 143.362661,40.9648069 143.362661,41.3124464 C143.362661,42.3270386 144.350215,42.4454936 144.78412,42.4454936 C146.061373,42.4454936 146.380687,41.5738197 146.524893,41.1682403 C146.872532,40.1806867 147.133906,38.9922747 147.366953,37.8888412 L152.445064,37.8888412 L151.718884,40.8502146 C150.817597,44.532618 149.542918,46.0133047 144.524034,46.0133047 C143.218455,46.0133047 142.028755,45.8974249 141.012876,45.4918455 C139.995708,45.0862661 138.370815,44.0703863 138.370815,41.951073 C138.370815,41.6330472 138.370815,40.9944206 138.834335,39.0798283 L140.809442,30.4609442 C141.448069,27.6450644 142.230901,26.6021459 143.101288,25.9635193 C144.466094,24.948927 146.75794,24.7738197 148.032618,24.7738197 C149.281545,24.7738197 150.848498,24.9463519 151.864378,25.3815451 C152.850644,25.8167382 154.069957,26.7154506 154.069957,28.9223176 C154.069957,29.3562232 154.013305,29.8493562 153.897425,30.372103 L153.288412,32.8957082 L148.529614,32.8957082 L149.080687,30.4879828 C149.138627,30.2845494 149.16824,30.0527897 149.16824,29.82103 C149.16824,28.6622318 148.295279,28.5167382 147.628326,28.5167382 L147.629614,28.5154506 Z M166.896567,40.8463519 C165.997854,44.5313305 164.720601,46.0094421 159.701717,46.0094421 C158.396137,46.0094421 157.207725,45.8935622 156.191845,45.4892704 C155.174678,45.0824034 153.552361,44.0665236 153.552361,41.9484979 C153.552361,41.6291845 153.552361,40.9905579 154.01588,39.0772532 L155.9897,30.4570815 C156.627039,27.6412017 157.409871,26.5982833 158.281545,25.9596567 C159.643777,24.9450644 161.935622,24.7699571 163.212876,24.7699571 C164.461803,24.7699571 166.027468,24.9437768 167.043348,25.37897 C168.029614,25.8167382 169.248927,26.7141631 169.248927,28.9197425 C169.248927,29.3549356 169.190987,29.8467811 169.075107,30.3708155 L168.466094,32.8944206 L163.707296,32.8944206 L164.260944,30.4866953 C164.317597,30.2832618 164.345923,30.0515021 164.345923,29.8197425 C164.345923,28.6570815 163.475536,28.5128755 162.808584,28.5128755 C161.618884,28.5128755 161.387124,29.0922747 161.154077,29.7309013 L158.718026,40.2373391 C158.630472,40.5849785 158.544206,40.9622318 158.544206,41.3098712 C158.544206,42.3244635 159.53176,42.4429185 159.965665,42.4429185 C161.242918,42.4429185 161.562232,41.5712446 161.706438,41.1656652 C162.054077,40.1793991 162.314163,38.9896996 162.54721,37.8875536 L167.624034,37.8875536 L166.896567,40.848927 L166.896567,40.8463519 Z M180.099142,42.0077253 L179.287983,45.6051502 L168.463519,45.6051502 L173.193991,25.1201717 L183.494421,25.1201717 L182.683262,28.6609442 L177.373391,28.6609442 L176.299571,33.3038627 L181.346781,33.3038627 L180.565236,36.7854077 L175.487124,36.7854077 L174.298712,42.0090129 L180.101717,42.0090129 L180.099142,42.0077253 Z M191.472103,45.6051502 L181.259227,45.6051502 L185.988412,25.1201717 L190.950644,25.1201717 L187.033906,42.1236052 L192.287124,42.1236052 L191.472103,45.6051502 L191.472103,45.6051502 Z M204.818884,36.7854077 L199.740773,36.7854077 L198.549785,42.0077253 L204.35279,42.0077253 L203.541631,45.6051502 L192.718455,45.6051502 L197.447639,25.1201717 L207.748069,25.1201717 L206.934335,28.6609442 L201.624464,28.6609442 L200.550644,33.3038627 L205.597854,33.3038627 L204.816309,36.7841202 L204.818884,36.7854077 Z M220.545064,45.5188841 L220.545064,45.6927039 L216.249785,45.5472103 C215.380687,45.5188841 214.771674,45.1995708 214.771674,44.2725322 C214.771674,44.1257511 214.771674,43.9248927 214.975107,42.9939914 L215.729614,39.3373391 C215.875107,38.616309 215.933047,38.3523605 215.933047,38.0909871 C215.933047,37.0738197 215.121888,36.9888412 214.481974,36.9888412 L213.060515,36.9888412 L211.058369,45.6064378 L206.067811,45.6064378 L210.798283,25.1214592 L216.775107,25.1214592 C219.677253,25.1214592 222.753219,25.1214592 222.753219,28.4587983 C222.753219,29.5042918 222.319313,31.6519313 221.796567,32.7244635 C221.011159,34.4072961 219.678541,34.872103 218.139914,35.1038627 C218.922747,35.2493562 220.866953,35.6253219 220.866953,37.4832618 C220.866953,37.8914163 220.780687,38.2969957 220.663519,38.9639485 L220.02618,42.0695279 C219.938627,42.504721 219.647639,43.955794 219.647639,44.3034335 C219.647639,45.2008584 220.256652,45.4042918 220.548927,45.5214592 L220.545064,45.5188841 Z M236.124464,45.6051502 L231.251073,45.6051502 L231.686266,41.0497854 L227.88412,41.0497854 L226.143348,45.6051502 L220.833476,45.6051502 L229.627468,25.1201717 L237.60515,25.1201717 L236.127039,45.6051502 L236.124464,45.6051502 Z M244.104721,45.6051502 L239.114163,45.6051502 L243.028326,28.6609442 L239.286695,28.6609442 L240.128755,25.1201717 L252.257511,25.1201717 L251.443777,28.6609442 L248.018884,28.6609442 L244.104721,45.6051502 L244.104721,45.6051502 Z M256.259227,46.0403433 C253.561803,46.0403433 250.109871,45.2858369 250.109871,41.4270386 C250.109871,40.644206 250.312017,39.5124464 250.457511,38.8738197 L252.342489,30.9527897 C253.127897,27.6154506 253.939056,24.7725322 259.596567,24.7725322 C260.670386,24.7725322 262.874678,24.9180258 264.209871,25.8463519 C265.604292,26.8339056 265.806438,28.1974249 265.806438,29.2120172 C265.806438,30.5472103 265.371245,32.3742489 265.053219,33.7094421 L263.428326,40.6171674 C262.470386,44.6214592 260.788841,46.0416309 256.260515,46.0416309 L256.259227,46.0403433 Z M280.023605,32.7218884 C279.240773,34.404721 277.905579,34.8695279 276.366953,35.1012876 C277.152361,35.2467811 279.096567,35.6227468 279.096567,37.4806867 C279.096567,37.8875536 279.009013,38.2918455 278.890558,38.9613734 L278.253219,42.0643777 C278.166953,42.5021459 277.875966,43.9519313 277.875966,44.2995708 C277.875966,45.2008584 278.484979,45.4017167 278.777253,45.5188841 L278.777253,45.6927039 L274.480687,45.5472103 C273.6103,45.5188841 273,45.1995708 273,44.2725322 C273,44.1257511 273,43.9248927 273.206009,42.9939914 L273.959227,39.3373391 C274.104721,38.616309 274.161373,38.3523605 274.161373,38.0909871 C274.161373,37.0738197 273.347639,36.9888412 272.7103,36.9888412 L271.287554,36.9888412 L269.28412,45.6064378 L264.293562,45.6064378 L269.022747,25.1214592 L275.000858,25.1214592 C277.903004,25.1214592 280.97897,25.1214592 280.97897,28.4587983 C280.97897,29.5017167 280.543777,31.6519313 280.02103,32.723176 L280.023605,32.7218884 Z" id="Shape" sketch:type="MSShapeGroup"></path>
                <path d="M131.987124,37.5386266 L132.916738,27.0064378 L129.203433,37.5386266 L131.987124,37.5386266 Z M259.564378,28.4549356 C258.287124,28.4549356 258.027039,29.1527897 257.851931,29.7038627 C257.474678,30.9785408 255.009013,40.3815451 255.009013,41.1373391 C255.009013,41.9188841 255.560086,42.3257511 256.518026,42.3257511 C257.880258,42.3257511 258.230472,41.339485 258.693991,39.5111588 C258.982403,38.4090129 260.259657,33.0399142 260.548069,31.8218884 C260.954936,30.2253219 260.985837,30.0515021 260.985837,29.7618026 C260.985837,28.97897 260.522318,28.4562232 259.56309,28.4562232 L259.564378,28.4549356 Z M232.001717,37.5386266 L232.928755,27.0064378 L229.215451,37.5386266 L232.001717,37.5386266 Z M217.000429,28.6892704 C216.71073,28.6609442 216.53691,28.6609442 214.969957,28.6609442 L213.867811,33.360515 L215.232618,33.360515 C216.275536,33.3321888 216.884549,33.3321888 217.349356,32.2866953 C217.639056,31.6776824 217.958369,29.8493562 217.958369,29.5570815 C217.958369,28.7755365 217.32103,28.7175966 217.001717,28.6892704 L217.000429,28.6892704 Z M41.6587983,12.7081545 L39.7918455,12.7081545 L38.5377682,18.0309013 L40.5888412,18.0309013 C41.232618,18.0309013 41.904721,17.9690987 42.3334764,16.8373391 C42.4879828,16.4381974 43.006867,14.4193133 43.006867,13.7472103 C43.006867,12.706867 41.9974249,12.706867 41.6613734,12.706867 L41.6587983,12.7081545 Z M275.232618,28.6892704 C274.941631,28.6609442 274.769099,28.6609442 273.200858,28.6609442 L272.098712,33.360515 L273.463519,33.360515 C274.506438,33.3321888 275.115451,33.3321888 275.580258,32.2866953 C275.869957,31.6776824 276.18927,29.8493562 276.18927,29.5570815 C276.18927,28.7755365 275.551931,28.7175966 275.232618,28.6892704 L275.232618,28.6892704 Z M57.9064378,12.7377682 C57.6,12.7081545 57.4171674,12.7081545 55.7639485,12.7081545 L54.6012876,17.6652361 L56.039485,17.6652361 C57.1416309,17.6369099 57.7841202,17.6369099 58.2733906,16.5321888 C58.5785408,15.8909871 58.9145923,13.9635193 58.9145923,13.6570815 C58.9145923,12.8291845 58.2424893,12.7686695 57.9051502,12.7377682 L57.9064378,12.7377682 Z" id="Shape" sketch:type="MSShapeGroup"></path>
            </g>
        </g>
    </g>
</svg>