<?xml version="1.0" encoding="utf-8"?>
<!-- Generator: Adobe Illustrator 16.2.1, SVG Export Plug-In . SVG Version: 6.00 Build 0)  -->
<!DOCTYPE svg PUBLIC "-//W3C//DTD SVG 1.1//EN" "http://www.w3.org/Graphics/SVG/1.1/DTD/svg11.dtd">
<svg version="1.1" id="Layer_1" xmlns="http://www.w3.org/2000/svg" xmlns:xlink="http://www.w3.org/1999/xlink" x="0px" y="0px"
	 width="430px" height="130px" viewBox="0 0 430 130" enable-background="new 0 0 430 130" xml:space="preserve">
<g>
	<path fill="#454545" d="M65.217,15.428c-27.349,0-49.52,22.134-49.52,49.438c0,27.306,22.171,49.438,49.52,49.438
		c27.346,0,49.52-22.132,49.52-49.438C114.737,37.562,92.563,15.428,65.217,15.428z M69.996,17.49
		c0.364-0.048,0.726-0.106,1.083-0.169c0.23-0.015,0.463-0.015,0.692,0l0.197,0.027c8.004,1.166,15.363,4.329,21.564,8.964
		c-2.994-0.085-17.894,4.512-17.109,23.749c0.142,3.478-1.958,5.953-4.529,7.67c-0.41-0.395-0.854-0.729-1.312-1.033
		c2.206-4.84,2.878-11.133-3.8-16.447C56.854,32.349,62.925,19.142,69.996,17.49z M70.162,64.471c0,2.808-2.275,5.082-5.082,5.082
		l-0.208-0.011c-1.121-0.116-2.208-0.603-3.066-1.458c-1.985-1.986-1.985-5.205-0.002-7.19c1.048-1.047,2.441-1.537,3.813-1.479
		C68.172,59.683,70.162,61.845,70.162,64.471z M36.687,26.489c6.433-4.866,13.827-7.876,21.45-9.044
		c-1.936,1.462-9.999,15.634,4.535,29.029c2.559,2.359,2.825,5.595,2.221,8.626c-0.37,0.007-0.73,0.038-1.09,0.086
		c-1.848-5.011-5.819-9.995-14.346-9.026C35.865,47.704,31.053,31.733,36.687,26.489z M27.267,35.951
		c-0.655,1.536,3.281,18.351,23.685,17.516c3.398-0.14,5.834,1.864,7.548,4.353c-0.386,0.381-0.749,0.785-1.063,1.229
		c-4.86-2.258-11.222-3.008-16.59,3.735c-7.929,9.964-21.208,3.812-22.781-3.291C18.937,51.142,21.999,42.978,27.267,35.951z
		 M27.384,93.179c-4.854-6.425-7.862-13.808-9.028-21.423c2.55,2.352,15.981,8.955,28.714-4.863c2.362-2.564,5.604-2.824,8.64-2.22
		c0.012,0.519,0.078,1.02,0.171,1.513c-4.931,1.888-9.75,5.862-8.796,14.258C48.631,94.062,32.598,98.864,27.384,93.179z
		 M58.851,111.632c-7.8-1.073-15.384-4.064-21.969-8.994c1.578,0.638,18.341-3.314,17.507-23.688
		c-0.138-3.408,1.877-5.85,4.373-7.562c0.289,0.262,0.588,0.51,0.907,0.736c-2.253,4.858-2.995,11.217,3.742,16.579
		C73.966,97.104,66.44,111.5,58.851,111.632z M95.016,101.477c-6.516,5.28-14.443,8.886-23.127,10.135
		c1.567-0.666,10.628-15.312-4.369-29.13c-2.562-2.363-2.822-5.603-2.221-8.638c0.56,0.006,1.121-0.022,1.675-0.116
		c1.834,5.042,5.804,10.095,14.384,9.12C94.142,81.396,99.155,95.439,95.016,101.477z M103.61,92.418
		c-0.138-3.453-4.962-17.645-23.748-16.875c-3.497,0.143-5.979-1.98-7.699-4.568c0.296-0.31,0.562-0.637,0.807-0.975
		c4.831,2.18,11.085,2.814,16.376-3.831c8.394-10.547,22.794-3.037,22.945,4.546C111.235,78.75,108.162,86.156,103.61,92.418z
		 M102.494,35.035c5.053,6.407,8.497,14.138,9.72,22.581c-1.067-1.761-15.482-10.325-29.091,4.443
		c-2.292,2.487-5.411,2.805-8.368,2.27c-0.006-0.465-0.035-0.93-0.113-1.392c5.032-1.839,10.061-5.809,9.088-14.37
		c-1.433-12.609,12.2-17.654,18.368-13.823C102.229,34.844,102.362,34.937,102.494,35.035z"/>
	<path fill="#454545" d="M65.217,125.569c-33.471,0-60.703-27.231-60.703-60.704S31.746,4.162,65.217,4.162
		c33.473,0,60.705,27.231,60.705,60.704S98.69,125.569,65.217,125.569z M65.217,11.911c-29.199,0-52.955,23.755-52.955,52.955
		c0,29.199,23.756,52.955,52.955,52.955c29.201,0,52.956-23.756,52.956-52.955C118.173,35.666,94.418,11.911,65.217,11.911z"/>
	<path fill="#454545" d="M123.856,27.437c0,0-5.719-18.334-23.529-23.312C100.327,4.125,115.953,13.031,123.856,27.437z"/>
	<path fill="#454545" d="M5.847,101.356c0,0,5.719,18.335,23.529,23.313C29.376,124.67,13.75,115.764,5.847,101.356z"/>
	<polygon fill="#454545" points="147.619,31.579 171.178,31.579 171.178,39.036 156.433,39.036 156.433,59.714 169.738,59.714 
		169.738,67.172 156.433,67.172 156.433,97 147.619,97 	"/>
	<polygon fill="#454545" points="178.717,31.579 187.531,31.579 187.531,89.541 201.937,89.541 201.937,97 178.717,97 	"/>
	<path fill="#454545" d="M199.773,31.579h9.32l4.322,14.237c0.142,0.422,0.281,0.89,0.425,1.397c0.142,0.508,0.31,1.061,0.508,1.654
		c1.609,5.141,2.712,9.463,3.305,12.964c0.508-3.501,0.931-5.945,1.273-7.33l1.354-5.847l0.508-2.289l3.643-14.788h9.197
		L222.23,68.865V97h-8.814V68.865L199.773,31.579z"/>
	<path fill="#454545" d="M239.458,31.579h8.517l4.446,30.38l0.723,4.492c0.338,2.43,0.596,4.648,0.763,6.652l0.465,5.551
		c0.027,0.141,0.059,0.395,0.086,0.762c0.029,0.369,0.071,0.834,0.127,1.398l0.212-2.119c0.338-3.699,0.698-7.104,1.08-10.211
		c0.381-3.107,0.798-5.974,1.249-8.602l4.702-28.304h6.781l4.407,27.499c0.65,4.067,1.194,7.84,1.629,11.313
		c0.44,3.475,0.799,6.795,1.081,9.957c0.283-3.333,0.603-6.555,0.954-9.66c0.353-3.105,0.727-6.159,1.121-9.152l0.638-4.363
		l3.77-25.593h8.432L279.074,97h-6.864l-4.617-28.262c-0.029-0.111-0.101-0.58-0.213-1.399c-0.112-0.818-0.284-1.989-0.509-3.516
		l-0.891-6.525c-0.055-0.508-0.148-1.271-0.273-2.287c-0.13-1.018-0.262-2.303-0.405-3.856l-0.21-2.712
		c-0.059,0.649-0.113,1.215-0.17,1.695s-0.1,0.876-0.128,1.186c-0.141,1.865-0.261,3.312-0.359,4.343
		c-0.098,1.033-0.161,1.659-0.19,1.887l-0.89,6.269c-0.197,1.441-0.354,2.572-0.466,3.39c-0.112,0.819-0.2,1.328-0.254,1.525
		L257.849,97h-7.078L239.458,31.579z"/>
	<polygon fill="#454545" points="298.614,31.579 307.429,31.579 307.429,57.172 320.353,57.172 320.353,31.579 329.165,31.579 
		329.165,97 320.353,97 320.353,64.627 307.429,64.627 307.429,97 298.614,97 	"/>
	<polygon fill="#454545" points="338.476,31.579 361.906,31.579 361.906,39.036 347.29,39.036 347.29,59.755 360.256,59.755 
		360.256,67.213 347.29,67.213 347.29,89.541 361.906,89.541 361.906,97 338.476,97 	"/>
	<polygon fill="#454545" points="370.76,31.579 394.19,31.579 394.19,39.036 379.572,39.036 379.572,59.755 392.539,59.755 
		392.539,67.213 379.572,67.213 379.572,89.541 394.19,89.541 394.19,97 370.76,97 	"/>
	<polygon fill="#454545" points="403.043,31.579 411.855,31.579 411.855,89.541 426.262,89.541 426.262,97 403.043,97 	"/>
</g>
</svg>
